<?xml version="1.0" standalone="no"?>
<!DOCTYPE svg PUBLIC "-//W3C//DTD SVG 20010904//EN"
 "http://www.w3.org/TR/2001/REC-SVG-20010904/DTD/svg10.dtd">
<svg version="1.0" xmlns="http://www.w3.org/2000/svg"
 width="1069.000000pt" height="1245.000000pt" viewBox="0 0 1069.000000 1245.000000"
 preserveAspectRatio="xMidYMid meet">

<g transform="translate(0.000000,1245.000000) scale(0.100000,-0.100000)"
fill="#000000" stroke="none">
<path d="M9420 12071 c0 -25 6 -27 13 -6 4 8 2 17 -3 20 -6 4 -10 -3 -10 -14z"/>
<path d="M4153 12055 c-15 -16 -20 -65 -10 -82 4 -6 4 -14 -1 -17 -10 -6 -9
-167 2 -184 4 -6 5 -16 1 -21 -3 -5 -1 -12 4 -16 6 -3 8 -21 6 -39 -3 -24 0
-36 10 -40 8 -3 15 -15 15 -26 0 -11 5 -20 10 -20 6 0 10 -8 10 -17 0 -10 14
-58 31 -107 16 -49 28 -95 25 -102 -3 -7 1 -19 8 -26 19 -20 36 -54 36 -75 0
-10 14 -33 30 -51 32 -35 38 -52 18 -52 -12 0 36 -48 101 -100 21 -16 31 -33
31 -50 0 -15 6 -27 13 -28 56 -7 79 -17 87 -37 11 -28 54 -75 69 -75 6 0 11
-6 11 -12 0 -7 13 -13 30 -14 33 -1 73 -31 64 -46 -4 -6 2 -8 14 -4 15 5 20 2
18 -10 -1 -18 40 -28 50 -12 3 5 16 0 30 -11 14 -11 36 -18 52 -16 15 2 31 0
37 -3 5 -3 28 -7 50 -8 80 -4 120 -14 138 -37 14 -16 17 -17 13 -4 -5 15 3 17
72 17 42 0 111 7 153 15 75 14 119 12 119 -7 0 -5 5 -6 12 -2 15 9 56 15 121
17 26 1 47 4 47 7 0 3 17 5 38 6 63 1 148 10 160 18 7 4 12 12 12 18 0 6 -7 5
-17 -3 -14 -12 -16 -12 -11 1 6 18 46 26 61 11 6 -6 21 -11 32 -11 12 0 25 -3
29 -7 9 -9 34 -14 74 -15 17 0 34 -3 36 -7 6 -8 103 2 198 22 37 8 70 12 72
10 2 -2 16 -5 32 -7 38 -5 64 -16 64 -26 0 -18 62 -19 233 -6 160 12 182 12
225 -3 26 -9 49 -18 52 -21 6 -7 68 -28 100 -34 70 -15 156 -53 165 -74 5 -12
13 -22 16 -22 11 0 114 -71 114 -79 0 -3 4 -5 10 -4 5 1 25 -18 44 -42 18 -25
39 -45 45 -45 6 0 18 -10 26 -21 25 -36 41 -49 51 -43 5 3 8 2 7 -3 -5 -14 34
-59 39 -45 9 24 23 1 23 -39 0 -38 1 -39 26 -33 25 6 26 5 21 -18 -6 -22 -3
-27 19 -32 23 -6 26 -11 22 -47 -2 -24 0 -38 7 -36 13 5 35 -18 35 -37 0 -9
-5 -16 -11 -16 -5 0 -7 -5 -4 -10 4 -6 11 -8 16 -4 18 11 36 -15 34 -50 0 -19
3 -32 7 -30 11 7 30 -45 26 -71 -1 -11 7 -33 18 -48 15 -18 24 -48 28 -95 7
-68 13 -80 61 -121 10 -8 15 -23 12 -37 -2 -14 2 -29 10 -36 9 -7 12 -21 8
-36 -7 -28 10 -53 31 -45 11 4 13 -4 8 -42 -6 -41 -5 -47 13 -51 14 -4 21 -14
21 -31 0 -14 4 -28 9 -32 5 -3 17 -17 26 -31 15 -22 17 -23 18 -5 0 11 7 -5
15 -35 8 -30 20 -58 27 -62 7 -4 12 -11 13 -15 1 -23 29 -103 45 -134 10 -20
19 -48 19 -62 0 -13 6 -30 14 -37 8 -6 13 -17 10 -24 -3 -7 2 -19 11 -26 8 -7
15 -22 15 -35 0 -12 9 -30 21 -41 11 -10 18 -26 16 -36 -3 -10 -1 -18 4 -18 5
0 9 -8 9 -17 0 -19 18 -81 31 -103 30 -55 82 -166 99 -212 5 -16 14 -28 19
-28 5 0 12 -16 15 -35 4 -19 13 -38 20 -42 16 -10 71 -119 80 -159 4 -16 16
-36 26 -44 11 -8 20 -22 20 -31 0 -9 8 -27 18 -40 11 -13 27 -45 37 -71 9 -26
26 -55 36 -64 11 -9 19 -30 19 -46 0 -15 4 -28 9 -28 5 0 12 -13 16 -30 4 -16
11 -30 16 -30 6 0 17 -16 25 -35 8 -20 24 -45 35 -56 11 -11 25 -34 31 -50 5
-16 16 -29 24 -29 8 0 21 -14 28 -30 7 -17 15 -27 19 -23 4 3 7 1 7 -6 0 -7 4
-10 9 -7 5 4 12 -7 16 -23 5 -22 11 -28 22 -24 12 5 15 2 10 -10 -4 -11 2 -25
17 -39 27 -28 61 -80 58 -91 -1 -4 9 -12 23 -19 13 -6 22 -14 20 -18 -6 -9 16
-29 30 -27 6 0 12 -8 13 -17 3 -11 0 -16 -7 -12 -6 4 -11 2 -11 -3 0 -6 5 -12
10 -12 6 -1 14 -2 18 -3 13 -2 62 -54 62 -67 0 -18 40 -69 55 -69 8 0 12 -6 9
-14 -3 -7 7 -23 21 -34 15 -12 24 -26 20 -32 -3 -5 5 -15 19 -21 14 -7 23 -16
20 -20 -3 -5 4 -9 15 -9 11 0 22 -9 26 -20 4 -11 11 -18 16 -15 5 4 9 1 9 -5
0 -14 25 -40 39 -40 6 0 11 -7 11 -15 0 -8 6 -15 14 -15 8 0 31 -16 52 -35 20
-19 41 -35 45 -35 5 0 9 -9 9 -20 0 -11 6 -20 14 -20 7 0 22 -12 32 -26 28
-38 57 -71 48 -55 -5 9 -3 12 4 7 7 -4 12 -13 12 -20 0 -7 36 -46 80 -87 44
-41 101 -93 126 -117 24 -23 53 -42 63 -42 12 0 21 -10 25 -25 4 -14 10 -24
15 -21 4 3 18 -8 30 -24 12 -17 28 -30 36 -30 8 0 15 -7 15 -15 0 -8 6 -15 13
-15 8 0 22 -9 32 -20 10 -11 22 -17 26 -14 5 3 13 -6 19 -20 5 -14 14 -26 21
-26 6 0 23 -13 39 -29 36 -36 110 -58 110 -32 0 9 3 26 6 38 4 16 -1 29 -19
45 -13 13 -28 34 -32 46 -4 13 -13 31 -21 40 -49 58 -76 83 -113 107 -22 15
-41 31 -41 36 0 5 -13 15 -30 24 -16 9 -30 21 -30 28 0 6 -23 25 -52 41 -59
33 -94 63 -182 154 -34 34 -66 62 -71 62 -6 0 -26 22 -45 48 -53 71 -63 82
-77 82 -7 0 -22 9 -33 20 -11 11 -18 20 -14 20 3 0 -6 11 -20 24 -15 13 -26
31 -26 40 0 9 -6 16 -13 16 -7 0 -18 9 -25 20 -7 12 -16 19 -21 16 -4 -3 -28
18 -52 45 -24 28 -55 61 -68 73 -78 68 -137 137 -156 180 -7 17 -26 44 -42 61
-15 16 -27 32 -25 35 1 3 -6 6 -17 8 -13 2 -21 14 -25 37 -4 21 -16 39 -29 47
-43 23 -94 86 -89 111 1 4 -2 7 -8 7 -5 0 -10 9 -10 19 0 11 -5 23 -10 26 -6
4 -8 11 -5 16 4 5 -1 9 -10 9 -8 0 -20 11 -25 25 -5 14 -15 25 -22 25 -15 1
-58 64 -58 84 0 8 -7 19 -15 26 -8 7 -15 19 -15 26 0 8 -4 14 -8 14 -5 0 -15
16 -22 35 -8 20 -20 41 -27 47 -7 6 -13 21 -13 34 0 13 -5 24 -10 24 -6 0 -8
10 -4 24 3 14 0 29 -10 38 -8 9 -12 18 -9 22 3 3 -2 9 -11 12 -14 5 -15 9 -4
15 10 7 9 9 -4 9 -10 0 -18 5 -18 10 0 6 -11 21 -25 34 -14 13 -25 28 -25 34
0 6 -9 14 -20 17 -11 4 -20 15 -20 26 0 11 -4 17 -10 14 -5 -3 -10 -4 -10 -2
0 36 -27 128 -45 151 -12 17 -26 51 -30 76 -4 24 -14 49 -22 55 -7 5 -16 28
-20 50 -3 22 -13 51 -23 65 -21 32 -57 111 -66 144 -3 14 -10 29 -15 32 -5 3
-9 20 -9 39 0 19 -4 36 -9 39 -5 4 -12 25 -16 48 -4 24 -13 52 -20 63 -8 11
-16 50 -20 87 -4 37 -11 65 -15 63 -5 -3 -23 23 -41 57 -18 35 -45 88 -60 118
-16 30 -29 63 -29 72 0 9 -3 18 -7 20 -17 7 -43 71 -43 104 0 19 -4 34 -10 34
-5 0 -10 7 -10 15 0 9 -7 18 -15 21 -8 4 -15 13 -15 20 0 8 -9 32 -20 54 -11
21 -17 45 -14 54 7 19 -23 76 -41 76 -8 0 -15 9 -15 20 0 11 4 20 10 20 13 0
7 65 -8 82 -8 10 -8 18 -1 25 8 8 8 13 0 18 -16 9 -24 -20 -17 -58 4 -25 3
-28 -5 -14 -6 9 -12 50 -15 90 -6 92 -24 174 -40 188 -7 6 -20 33 -29 60 -11
33 -22 49 -33 49 -15 0 -62 81 -62 107 0 5 -18 32 -40 62 -22 29 -40 50 -40
46 0 -5 -13 6 -30 23 -16 18 -30 36 -30 42 0 5 -5 10 -11 10 -6 0 -17 7 -25
15 -9 8 -27 15 -41 15 -16 0 -27 7 -30 20 -4 13 -14 20 -30 20 -13 0 -34 11
-46 24 -12 13 -31 25 -42 28 -14 2 -19 10 -17 25 3 24 -17 41 -28 23 -5 -8 -9
-5 -12 8 -4 14 -20 24 -49 32 -24 7 -53 23 -64 36 -14 16 -31 24 -53 24 -30 0
-32 2 -26 25 4 17 2 25 -7 26 -98 9 -152 19 -186 37 -18 9 -33 20 -33 24 0 5
-29 8 -64 8 -46 0 -67 4 -77 16 -10 12 -23 14 -58 8 -74 -12 -123 -4 -92 15
11 7 9 11 -7 20 -12 6 -23 7 -26 2 -9 -14 -46 0 -46 18 -1 14 -2 14 -10 -1 -8
-13 -23 -16 -74 -15 -47 2 -62 -1 -59 -10 5 -13 -3 -14 -112 -18 -94 -4 -350
-15 -423 -19 -43 -3 -70 -1 -67 5 8 12 -38 12 -84 0 -20 -6 -58 -15 -84 -22
-31 -8 -44 -15 -35 -20 22 -14 -1 -23 -62 -26 -47 -2 -61 1 -69 15 -9 15 -10
15 -11 1 0 -18 -84 -49 -134 -49 -18 0 -36 -4 -42 -10 -5 -5 -26 -11 -47 -12
-39 -3 -49 -14 -19 -20 9 -2 -5 -8 -32 -12 -30 -5 -52 -4 -58 2 -6 6 -17 8
-24 5 -8 -3 -16 2 -20 10 -3 8 -13 13 -24 10 -10 -3 -21 0 -24 6 -4 6 -23 11
-43 11 -20 0 -64 5 -99 11 -53 9 -61 13 -57 30 5 16 0 19 -35 17 -34 -1 -44 4
-72 35 -18 21 -41 37 -51 37 -10 0 -19 4 -19 8 0 13 -67 82 -79 82 -15 0 -44
68 -37 86 3 7 1 16 -4 19 -6 4 -10 -4 -11 -17 -1 -14 -6 -5 -13 22 -7 25 -18
45 -24 45 -20 0 -32 26 -32 69 0 41 -41 140 -64 153 -16 10 -30 73 -15 73 6 0
6 7 -1 21 -9 16 -14 18 -26 8 -9 -7 -14 -8 -14 -1 0 6 8 16 18 22 11 7 13 13
6 16 -7 3 -10 14 -7 24 3 11 0 20 -6 20 -6 0 -11 -6 -11 -12 -1 -7 -7 5 -15
27 -15 43 -22 135 -11 153 8 14 -23 92 -38 92 -6 0 -21 16 -34 35 -24 37 -40
43 -59 20z m44 -11 c-3 -3 -12 -4 -19 -1 -8 3 -5 6 6 6 11 1 17 -2 13 -5z
m-12 -353 c-8 -25 -25 -28 -20 -3 2 9 4 24 4 32 1 10 4 11 12 3 6 -6 8 -20 4
-32z m1535 -649 c0 -5 -13 -7 -30 -4 -16 2 -30 6 -30 8 0 2 14 4 30 4 17 0 30
-4 30 -8z"/>
<path d="M4161 11624 c0 -11 3 -14 6 -6 3 7 2 16 -1 19 -3 4 -6 -2 -5 -13z"/>
<path d="M2241 11436 c-14 -16 -5 -102 10 -112 5 -3 9 -14 9 -25 0 -16 -4 -19
-21 -14 -18 6 -20 5 -10 -14 7 -12 16 -21 22 -21 6 0 7 5 4 10 -3 6 -4 10 0
10 3 0 10 -12 15 -26 8 -19 7 -31 -2 -42 -11 -13 -10 -15 4 -9 14 5 24 -7 49
-61 27 -56 32 -79 33 -144 1 -42 4 -71 8 -65 11 18 19 3 23 -44 2 -24 8 -55
13 -69 5 -14 5 -36 1 -50 -7 -24 -7 -24 -8 -2 -1 33 -15 27 -27 -13 -6 -19 -7
-32 -2 -29 7 5 10 -3 7 -22 0 -4 5 -10 12 -15 11 -7 21 -76 34 -254 2 -27 6
-65 9 -84 6 -39 -38 -294 -59 -343 -18 -45 -31 -54 -84 -63 -30 -5 -39 -10
-30 -16 11 -7 11 -9 1 -9 -7 0 -11 -4 -7 -9 3 -5 -20 -15 -50 -21 -31 -6 -68
-18 -83 -26 -15 -8 -34 -14 -42 -14 -9 0 -20 -4 -25 -9 -18 -18 -147 -81 -155
-76 -4 3 -10 -2 -14 -10 -3 -8 -12 -15 -20 -15 -7 0 -16 -7 -20 -15 -6 -16
-56 -21 -56 -6 0 17 -43 7 -48 -11 -2 -10 -11 -18 -18 -18 -8 0 -17 -6 -20
-14 -3 -8 -12 -17 -20 -20 -8 -3 -13 -2 -10 2 3 5 -1 9 -8 9 -9 0 -12 -7 -8
-15 4 -12 1 -14 -12 -9 -11 4 -29 -2 -50 -18 -36 -27 -56 -31 -73 -14 -9 9
-18 5 -35 -14 -20 -21 -36 -26 -93 -31 -47 -4 -74 -11 -81 -21 -7 -9 -31 -18
-55 -21 -46 -5 -78 -24 -44 -24 17 -1 16 -3 -6 -15 -14 -7 -39 -13 -56 -13
-35 1 -53 -8 -53 -26 0 -13 -51 -31 -77 -27 -7 1 -13 -5 -13 -14 0 -9 -19 -24
-45 -35 -35 -15 -50 -28 -61 -56 -12 -30 -17 -34 -30 -23 -17 14 -19 12 -28
-18 -5 -14 -3 -23 3 -23 19 0 12 -22 -9 -27 -11 -3 -20 -11 -20 -19 0 -7 -9
-18 -20 -24 -11 -6 -20 -17 -20 -25 0 -8 -8 -15 -18 -15 -13 0 -18 -7 -18 -22
1 -16 -4 -23 -16 -22 -13 1 -18 -5 -18 -22 0 -13 -5 -24 -11 -24 -5 0 -7 5 -4
10 3 6 -1 10 -10 10 -9 0 -13 -4 -10 -10 3 -5 -1 -10 -9 -10 -10 0 -16 -9 -16
-23 0 -20 -59 -87 -77 -87 -9 0 -33 -29 -33 -39 0 -6 -5 -11 -11 -11 -7 0 -9
-16 -4 -50 5 -34 3 -50 -4 -50 -6 0 -11 6 -12 13 0 9 -24 -73 -29 -100 0 -2 5
-3 11 -3 5 0 8 3 6 8 -9 15 8 41 21 33 10 -6 8 -15 -11 -37 -14 -16 -27 -41
-29 -54 -2 -14 -9 -24 -15 -23 -18 4 -35 -34 -37 -83 -1 -24 -15 -68 -33 -106
-18 -34 -35 -80 -38 -100 -3 -21 -10 -38 -15 -38 -5 0 -7 -7 -4 -15 5 -11 2
-13 -10 -9 -12 5 -16 0 -16 -17 0 -19 2 -21 10 -9 8 13 10 12 10 -2 0 -10 -3
-18 -7 -18 -12 0 -33 -51 -34 -79 0 -15 -3 -21 -5 -14 -3 7 -11 10 -17 7 -9
-3 -12 -23 -10 -60 2 -39 -2 -56 -12 -60 -9 -4 -16 -31 -20 -80 -4 -41 -11
-77 -16 -80 -5 -3 -9 0 -9 5 0 6 -5 11 -10 11 -7 0 -7 -6 -1 -18 6 -12 4 -35
-6 -72 -8 -30 -19 -71 -23 -90 -5 -19 -11 -44 -15 -56 -4 -14 0 -27 10 -38 13
-13 16 -27 12 -59 -9 -59 -34 -195 -46 -241 -5 -21 -7 -44 -4 -52 3 -7 -2 -28
-11 -45 -9 -18 -16 -38 -16 -45 0 -7 -4 -14 -10 -16 -18 -6 -14 -217 5 -280
12 -39 35 -59 55 -48 21 11 33 84 35 205 0 44 4 85 7 91 4 6 8 39 9 72 1 34 6
62 10 62 5 0 9 12 9 26 0 14 7 49 15 77 22 77 25 108 15 127 -7 13 -4 24 11
41 12 14 19 35 18 54 -2 37 8 79 33 128 17 33 22 70 27 184 0 18 12 45 27 62
14 17 23 35 19 41 -3 5 3 20 14 32 12 12 21 34 21 50 0 15 4 28 10 28 5 0 12
17 16 38 4 20 11 48 17 62 13 32 12 29 21 73 5 20 12 37 16 37 4 0 11 15 14
34 4 19 13 39 21 46 8 7 15 20 15 29 0 9 4 21 9 27 4 5 14 30 21 56 7 26 18
49 26 52 8 3 14 12 14 19 0 12 32 76 108 217 12 23 25 61 29 85 3 24 12 46 19
49 8 3 14 13 14 22 0 9 13 33 29 53 15 20 34 47 41 61 16 32 73 87 100 95 11
3 20 11 20 16 0 5 5 9 10 9 6 0 32 22 59 49 37 37 60 51 88 56 21 3 56 15 78
27 22 12 50 27 62 32 13 6 23 17 23 24 0 6 8 12 19 12 10 0 24 7 31 15 7 8 22
15 35 15 12 0 35 6 51 14 16 8 41 13 57 12 22 -3 26 0 22 15 -8 24 11 34 24
12 9 -17 11 -16 26 5 11 14 26 22 46 22 19 0 37 8 48 21 13 16 29 21 74 22 36
1 56 6 53 13 -2 6 0 17 5 25 7 11 9 11 9 1 0 -16 56 -7 80 13 8 7 27 15 43 19
16 4 27 13 28 24 0 10 3 12 6 5 7 -18 33 -16 33 2 0 8 17 19 43 26 23 7 47 18
52 24 16 19 51 34 82 37 20 1 30 7 29 18 -1 8 9 16 22 18 13 2 26 10 29 18 6
16 65 44 93 44 10 0 21 -6 23 -12 3 -8 6 -6 6 5 1 9 8 17 16 17 33 0 63 30 69
71 3 22 13 42 21 45 8 3 17 16 21 27 4 12 17 36 30 53 19 24 23 42 22 85 -1
30 3 88 9 129 7 55 6 109 -3 201 -7 69 -15 197 -17 285 -3 118 -8 169 -20 195
-22 47 -37 108 -37 147 0 23 -4 31 -12 26 -7 -4 -8 -3 -4 5 4 6 3 26 -3 44 -6
17 -12 58 -13 90 -2 54 -7 61 -35 58 -7 -1 -13 5 -13 14 0 8 5 15 11 15 5 0 7
5 4 10 -4 6 -11 8 -16 4 -18 -11 -39 17 -33 45 4 17 3 22 -4 13 -13 -18 -36
11 -29 37 8 31 -50 44 -72 17z m-734 -1852 c-3 -3 -12 -4 -19 -1 -8 3 -5 6 6
6 11 1 17 -2 13 -5z"/>
<path d="M4213 11420 c1 -11 5 -20 9 -20 11 0 10 28 -1 35 -6 3 -9 -4 -8 -15z"/>
<path d="M2450 11200 c0 -5 5 -10 11 -10 5 0 7 5 4 10 -3 6 -8 10 -11 10 -2 0
-4 -4 -4 -10z"/>
<path d="M6310 11110 c0 -6 7 -10 15 -10 8 0 15 2 15 4 0 2 -7 6 -15 10 -8 3
-15 1 -15 -4z"/>
<path d="M6780 11078 c0 -4 4 -8 9 -8 6 0 12 4 15 8 3 5 -1 9 -9 9 -8 0 -15
-4 -15 -9z"/>
<path d="M4820 10999 c0 -5 5 -7 10 -4 6 3 10 8 10 11 0 2 -4 4 -10 4 -5 0
-10 -5 -10 -11z"/>
<path d="M1655 9489 c-4 -6 -5 -12 -2 -15 2 -3 7 2 10 11 7 17 1 20 -8 4z"/>
<path d="M1290 9349 c0 -5 5 -7 10 -4 6 3 10 8 10 11 0 2 -4 4 -10 4 -5 0 -10
-5 -10 -11z"/>
<path d="M6795 8953 c15 -38 23 -72 17 -77 -3 -3 2 -6 11 -6 10 0 17 -8 17
-18 0 -10 8 -27 18 -38 10 -11 17 -24 15 -30 -2 -6 3 -17 12 -24 8 -7 15 -20
15 -29 0 -9 5 -22 12 -29 6 -6 13 -22 15 -34 2 -12 8 -25 15 -29 6 -4 7 -12 4
-18 -4 -6 -4 -11 1 -11 9 0 33 -48 33 -67 0 -7 9 -17 20 -23 11 -6 20 -17 20
-24 0 -7 16 -31 35 -52 19 -21 35 -42 35 -46 0 -4 6 -8 13 -8 16 -1 50 -48 42
-60 -3 -6 1 -13 9 -16 9 -3 14 -10 11 -14 -3 -4 11 -18 30 -31 19 -13 35 -27
35 -31 0 -15 33 -39 47 -34 8 3 12 2 9 -3 -7 -10 22 -23 34 -16 5 3 11 1 15
-5 3 -5 1 -10 -4 -10 -6 0 -11 -7 -11 -15 0 -8 7 -15 15 -15 8 0 15 -9 15 -20
0 -11 5 -20 11 -20 6 0 9 9 6 19 -4 15 0 19 16 15 26 -4 43 -22 52 -51 4 -16
2 -23 -7 -23 -24 -1 25 -30 50 -30 16 0 22 -5 19 -13 -5 -15 27 -59 37 -50 3
4 6 2 6 -3 0 -6 7 -19 15 -30 14 -18 15 -17 9 10 -5 21 -4 27 5 22 6 -4 11
-13 11 -19 0 -7 8 -17 18 -24 11 -6 31 -36 45 -66 14 -30 31 -58 36 -62 6 -3
11 -18 11 -33 0 -15 8 -39 17 -52 10 -13 20 -43 23 -65 4 -31 9 -39 23 -37 12
2 17 -4 17 -23 0 -14 -4 -25 -10 -25 -14 0 -12 -56 3 -72 15 -17 22 -52 8 -43
-6 3 -11 2 -11 -4 0 -5 4 -12 8 -15 4 -3 7 -26 6 -53 -4 -79 -4 -106 2 -155 5
-40 3 -48 -10 -48 -12 0 -14 -5 -6 -24 7 -19 5 -28 -10 -41 -12 -11 -22 -38
-26 -67 -5 -33 -13 -52 -26 -59 -10 -5 -16 -14 -13 -20 7 -11 -16 -79 -27 -79
-4 0 -14 -12 -22 -27 -22 -42 -62 -84 -71 -75 -5 4 -5 2 -1 -5 7 -13 -49 -73
-67 -73 -7 0 -6 -5 1 -12 17 -17 15 -33 -3 -18 -12 10 -15 10 -15 -3 0 -8 -7
-18 -16 -21 -11 -4 -14 -13 -11 -27 4 -16 -1 -21 -23 -25 -16 -4 -30 -14 -33
-25 -3 -11 -14 -19 -26 -19 -12 0 -21 -4 -21 -10 0 -5 -6 -10 -13 -10 -7 0
-20 -13 -30 -29 -10 -18 -29 -32 -47 -36 -16 -4 -32 -11 -35 -16 -4 -5 -21 -9
-39 -9 -18 0 -36 -3 -40 -7 -10 -11 -36 -15 -88 -16 -27 0 -48 -5 -48 -10 0
-5 -7 -4 -15 3 -12 10 -19 9 -37 -2 -13 -8 -34 -14 -48 -13 -14 1 -29 -3 -35
-10 -16 -18 -116 -44 -170 -44 -27 0 -63 -4 -78 -10 -37 -14 -102 -14 -143 1
-26 9 -41 9 -74 -2 -30 -10 -43 -11 -49 -2 -14 23 -95 36 -162 25 -40 -7 -66
-7 -70 -1 -8 12 -89 18 -89 6 0 -14 -147 2 -190 20 -19 9 -50 16 -69 17 -22 1
-41 10 -52 23 -13 16 -24 21 -46 16 -23 -4 -36 2 -69 33 -23 21 -44 39 -48 40
-4 0 -20 12 -34 25 -64 55 -130 108 -137 108 -15 0 -75 53 -75 67 0 7 -8 16
-17 20 -22 8 -53 39 -53 53 0 5 -10 10 -21 10 -16 0 -19 3 -11 13 13 15 6 27
-25 45 -19 10 -23 10 -23 -3 0 -19 -65 52 -74 82 -4 11 -13 27 -21 33 -8 7
-15 20 -15 30 0 10 -7 23 -15 30 -8 7 -15 28 -15 46 0 28 -5 36 -25 44 -14 5
-25 14 -25 19 0 6 -9 15 -21 21 -65 35 -58 -80 13 -203 16 -26 28 -56 28 -66
0 -10 7 -24 15 -31 8 -7 15 -19 15 -27 0 -16 56 -93 77 -106 7 -4 13 -12 13
-17 0 -6 7 -18 15 -27 26 -31 102 -108 116 -118 46 -33 104 -81 107 -87 2 -5
7 -6 12 -3 4 3 13 -2 20 -10 7 -8 20 -15 30 -15 10 0 20 -6 23 -14 3 -8 20
-17 37 -21 17 -4 34 -13 36 -20 3 -7 17 -16 30 -19 14 -4 29 -17 34 -30 10
-26 93 -89 104 -79 3 4 6 1 6 -6 0 -8 7 -10 19 -6 11 3 28 2 38 -3 80 -39 110
-52 122 -52 7 0 27 -12 44 -26 25 -21 39 -25 74 -22 28 2 44 -1 48 -9 6 -16
50 -17 78 -1 30 16 48 19 157 23 52 2 134 7 181 10 56 5 101 3 130 -5 55 -16
174 -16 192 -2 7 6 29 13 48 16 59 8 174 37 184 47 5 5 17 9 27 9 10 0 58 16
107 35 48 19 100 35 114 35 14 0 38 10 54 23 25 21 87 53 166 85 15 6 27 18
27 27 0 8 9 15 21 15 11 0 33 14 49 31 38 42 55 30 57 -41 2 -88 10 -120 33
-145 25 -27 52 -120 54 -190 1 -49 0 -51 -70 -123 -40 -39 -77 -72 -83 -72 -6
0 -11 -7 -11 -15 0 -8 -12 -21 -27 -29 -16 -8 -50 -37 -78 -65 -27 -28 -57
-51 -66 -51 -10 0 -19 -4 -21 -8 -1 -4 -20 -21 -40 -36 -43 -32 -45 -39 -19
-65 16 -16 21 -17 47 -3 16 8 43 27 59 42 17 15 48 37 70 50 55 34 206 167
233 207 12 18 27 33 33 33 10 0 48 -78 75 -155 8 -21 18 -42 22 -45 4 -3 15
-32 26 -65 10 -33 24 -75 32 -93 8 -18 14 -38 14 -43 0 -13 -46 -74 -102 -136
-21 -24 -38 -51 -38 -62 0 -11 -4 -22 -9 -25 -5 -3 -12 -23 -16 -43 -4 -21
-11 -43 -15 -48 -5 -6 -22 -36 -39 -68 -34 -66 -73 -103 -116 -113 -16 -4 -41
-15 -54 -25 -13 -11 -32 -19 -42 -19 -9 0 -24 -7 -33 -15 -8 -9 -41 -28 -73
-43 -32 -15 -86 -44 -119 -65 -34 -20 -71 -37 -83 -37 -11 0 -42 -13 -68 -29
-27 -16 -67 -34 -90 -40 -23 -7 -45 -16 -48 -21 -3 -6 -14 -10 -24 -10 -10 0
-29 -8 -42 -18 -13 -10 -46 -27 -74 -37 -27 -10 -59 -24 -70 -32 -11 -7 -29
-13 -41 -13 -12 0 -27 -7 -34 -15 -7 -8 -20 -15 -30 -15 -23 0 -41 -22 -31
-39 7 -10 20 -11 67 -1 69 14 297 88 304 100 9 13 91 50 170 77 93 31 120 36
120 24 0 -11 -83 -71 -99 -71 -5 0 -21 -10 -34 -22 -14 -13 -58 -34 -98 -47
-41 -14 -81 -29 -89 -35 -33 -24 -78 -45 -104 -48 -15 -3 -31 -9 -34 -15 -8
-13 -102 -57 -114 -55 -5 1 -8 -5 -8 -13 0 -8 -6 -15 -12 -15 -7 0 -26 -7 -43
-16 -16 -9 -46 -18 -65 -21 -19 -3 -47 -11 -61 -19 -19 -9 -36 -11 -57 -5 -23
7 -39 5 -64 -9 -18 -10 -43 -23 -55 -29 -13 -6 -23 -15 -23 -20 0 -5 -9 -11
-20 -14 -11 -3 -20 -12 -20 -21 0 -12 10 -16 38 -16 57 0 155 20 172 35 8 7
48 27 88 44 40 17 83 37 95 46 12 8 29 15 38 15 9 0 32 11 52 24 19 13 46 27
58 31 13 4 32 14 42 23 9 8 17 12 17 8 0 -4 8 -2 18 3 9 5 33 12 52 16 19 4
47 9 63 12 15 3 30 9 33 14 3 5 20 9 37 9 18 0 44 6 59 14 14 8 42 19 62 26
20 6 36 16 36 21 0 5 6 9 13 9 8 0 22 9 32 20 10 11 24 20 31 20 7 0 36 20 64
45 62 55 102 81 218 140 60 32 105 64 145 105 34 36 66 60 80 61 12 1 48 2 80
4 32 1 68 7 80 13 85 40 269 35 342 -9 16 -11 38 -19 48 -19 9 0 17 -5 17 -11
0 -5 16 -17 35 -25 20 -8 43 -21 53 -30 30 -27 92 -64 117 -70 14 -3 34 -17
44 -30 10 -13 22 -24 26 -24 4 0 19 -8 33 -18 15 -10 53 -26 84 -36 31 -11 59
-25 62 -32 3 -8 9 -14 14 -14 4 0 36 -26 69 -57 34 -32 67 -63 74 -68 8 -6 39
-31 69 -56 30 -26 65 -50 77 -53 12 -4 32 -19 45 -34 13 -15 26 -27 30 -27 4
0 22 -14 40 -32 18 -17 45 -35 61 -38 15 -4 35 -17 45 -29 9 -12 35 -30 57
-40 22 -11 44 -25 48 -32 4 -8 18 -14 30 -14 31 0 185 -151 235 -229 9 -14 22
-32 29 -39 7 -7 13 -20 13 -27 0 -8 13 -21 28 -31 16 -9 44 -39 63 -66 19 -28
44 -57 57 -66 12 -8 22 -24 22 -36 0 -13 11 -33 24 -45 14 -13 30 -36 36 -52
7 -16 19 -29 26 -29 8 0 16 -11 20 -24 3 -14 12 -27 21 -30 8 -3 12 -10 9 -15
-10 -15 97 -139 131 -152 13 -5 31 -22 41 -39 10 -16 21 -27 24 -24 4 3 19
-11 35 -30 48 -61 94 -42 59 25 -7 14 -16 39 -20 55 -4 16 -25 66 -47 112 -21
45 -39 85 -39 87 0 11 -94 141 -116 162 -15 14 -24 33 -24 53 0 20 -6 33 -18
38 -21 8 -82 75 -82 89 0 6 -23 29 -50 52 -28 23 -57 59 -66 79 -17 42 -70 94
-114 112 -17 7 -33 22 -36 34 -3 12 -22 31 -42 42 -20 10 -63 43 -94 72 -32
28 -62 52 -67 52 -13 0 -91 76 -91 89 0 6 -19 14 -41 17 -40 7 -99 50 -99 73
0 18 -42 50 -120 90 -43 23 -83 47 -90 56 -7 8 -32 20 -56 26 -24 6 -44 15
-44 20 0 5 -12 15 -27 23 -16 9 -50 36 -78 61 -27 25 -60 48 -72 51 -13 4 -23
10 -23 14 0 5 -17 14 -37 21 -21 6 -42 18 -46 25 -4 8 -15 14 -24 14 -9 0 -30
9 -48 20 -18 11 -50 26 -71 34 -21 7 -64 25 -94 39 -30 14 -72 31 -93 37 -28
9 -42 21 -55 48 -12 26 -25 38 -47 42 -17 4 -44 15 -60 26 -16 10 -26 13 -22
7 10 -16 -3 -16 -24 0 -24 18 -89 142 -89 169 0 13 -6 33 -14 44 -8 11 -27 57
-42 102 -15 45 -30 80 -32 77 -10 -9 -32 18 -32 39 0 11 -11 39 -24 61 -14 22
-33 56 -42 75 -10 19 -21 37 -25 40 -4 3 -24 56 -44 117 -37 110 -38 114 -23
152 14 35 14 42 1 58 -11 14 -16 15 -20 5 -3 -9 -10 -4 -19 14 -9 17 -11 31
-5 38 6 7 6 27 1 51 -15 64 -12 66 30 23 22 -23 40 -49 40 -59 0 -10 9 -23 19
-29 11 -5 23 -20 26 -32 9 -28 75 -128 85 -128 4 0 10 -9 13 -20 3 -11 12 -20
21 -20 9 0 24 -17 35 -37 11 -21 37 -57 58 -79 52 -56 83 -94 83 -102 0 -12
233 -243 315 -312 28 -23 103 -92 169 -154 165 -154 178 -166 186 -166 4 0 19
-11 34 -25 35 -33 131 -105 139 -105 7 0 -6 44 -29 95 -10 22 -18 42 -19 45
-3 17 -59 88 -82 105 -15 11 -37 31 -48 43 -11 13 -33 37 -48 54 -16 16 -32
41 -38 55 -5 13 -13 21 -19 18 -5 -3 -10 -2 -10 2 0 5 -15 17 -32 27 -41 23
-148 133 -148 152 0 8 -6 14 -14 14 -8 0 -17 11 -20 25 -4 14 -11 23 -16 20
-6 -4 -13 1 -16 9 -3 8 -15 18 -26 22 -12 3 -35 20 -53 38 -17 17 -64 58 -103
91 -40 33 -74 67 -77 76 -3 9 -19 22 -34 29 -36 14 -91 67 -91 87 0 7 -12 26
-27 41 -27 26 -37 42 -70 105 -8 15 -19 25 -23 22 -5 -3 -12 5 -16 19 -3 13
-17 34 -30 47 -13 12 -24 28 -24 36 0 7 -5 13 -11 13 -17 0 -37 25 -45 56 -4
16 -18 37 -31 47 -13 10 -23 24 -23 32 0 22 -26 64 -54 86 -14 11 -26 28 -26
36 0 9 -6 21 -14 27 -7 6 -16 22 -19 36 -5 21 0 31 28 55 19 15 35 32 35 36 0
4 11 20 25 35 14 15 25 36 25 47 0 13 5 17 16 13 10 -4 14 -1 13 12 -2 9 1 33
6 52 4 19 7 50 7 68 -1 25 2 33 12 29 11 -5 12 0 6 24 -7 23 -5 31 6 36 7 3
14 13 14 22 0 26 36 122 49 130 15 10 4 79 -15 98 -8 8 -14 34 -14 57 0 24 -3
58 -7 76 -4 23 -3 31 5 26 8 -4 8 3 1 26 -5 18 -9 47 -9 65 0 17 -4 35 -10 38
-5 3 -7 20 -3 36 4 21 1 34 -8 40 -9 5 -13 24 -12 54 1 25 -2 45 -7 45 -13 0
-50 69 -50 92 0 12 -3 19 -6 15 -3 -3 -20 8 -36 24 -17 16 -35 29 -40 29 -5 0
-7 4 -3 10 3 5 -7 16 -23 24 -16 8 -37 32 -47 52 -9 20 -33 57 -51 81 -19 25
-32 49 -29 54 4 5 0 7 -7 4 -12 -4 -32 31 -52 88 -3 10 -10 16 -14 13 -5 -3
-27 14 -49 37 -22 23 -65 62 -94 87 -88 74 -299 291 -299 307 0 8 -11 28 -25
45 -14 16 -25 35 -25 42 0 6 -13 23 -30 36 -16 14 -29 30 -30 35 0 6 -10 15
-22 20 -12 6 -25 20 -28 33 -3 13 -9 22 -15 21 -5 -1 -16 12 -24 30 -12 26
-20 31 -49 31 -29 0 -33 -3 -27 -17z m-671 -2798 c-4 -8 -7 -15 -9 -15 -2 0
-5 7 -9 15 -3 9 0 15 9 15 9 0 12 -6 9 -15z m1846 -685 c17 -17 30 -35 30 -40
0 -4 20 -39 45 -76 25 -36 45 -69 46 -73 0 -3 2 -14 4 -23 2 -14 -3 -18 -24
-18 -14 0 -36 -7 -48 -15 -21 -15 -96 -20 -153 -12 -14 3 -31 5 -38 6 -9 1 -5
14 12 44 61 106 99 199 89 223 -8 22 5 16 37 -16z"/>
<path d="M1429 7448 c-13 -24 -6 -115 11 -132 5 -5 10 -33 10 -60 0 -29 7 -59
15 -70 8 -11 15 -28 15 -38 0 -10 4 -26 9 -36 17 -34 43 -118 53 -167 5 -27
15 -56 20 -63 6 -7 8 -15 5 -18 -3 -3 1 -27 9 -52 7 -26 14 -62 14 -80 0 -37
27 -102 41 -102 5 0 9 -13 9 -29 0 -17 5 -33 10 -36 6 -3 10 -21 10 -38 0 -18
12 -59 25 -92 14 -33 25 -69 25 -80 0 -11 7 -31 16 -43 8 -12 13 -31 9 -41 -3
-11 1 -36 10 -56 8 -21 15 -52 15 -71 0 -18 5 -36 10 -39 6 -3 10 -17 10 -30
0 -13 5 -27 11 -31 6 -3 8 -15 6 -26 -5 -19 -1 -33 29 -105 8 -17 14 -38 14
-47 0 -9 5 -16 10 -16 6 0 10 -8 10 -18 0 -10 9 -35 20 -57 11 -21 22 -62 26
-89 3 -28 9 -60 14 -71 29 -72 49 -128 65 -185 22 -81 43 -130 55 -130 6 0 10
-15 10 -34 0 -19 11 -57 25 -84 14 -28 25 -57 25 -66 0 -17 28 -66 44 -77 5
-4 6 -18 2 -32 -4 -18 1 -32 24 -55 16 -17 32 -44 35 -59 4 -15 15 -44 24 -63
10 -19 16 -41 13 -49 -3 -9 0 -11 8 -6 8 5 11 4 7 -2 -8 -13 6 -63 17 -60 10
2 35 -84 36 -124 0 -15 7 -32 15 -39 8 -7 15 -21 15 -32 0 -24 30 -120 41
-132 5 -6 9 -20 9 -31 0 -12 7 -44 15 -71 11 -38 21 -52 45 -62 16 -8 30 -18
30 -24 0 -6 9 -29 19 -52 10 -23 25 -61 32 -86 7 -25 23 -64 36 -88 15 -30 20
-53 16 -73 -3 -19 0 -36 9 -47 8 -9 21 -43 28 -75 7 -32 17 -60 22 -63 4 -3 8
-16 8 -29 0 -13 6 -25 13 -28 9 -3 12 -50 13 -188 1 -112 6 -200 14 -224 6
-22 16 -83 22 -135 6 -61 17 -106 29 -126 11 -19 19 -50 19 -77 0 -32 6 -52
19 -64 21 -21 55 -86 65 -125 3 -14 17 -39 30 -55 13 -15 31 -44 41 -63 10
-18 24 -40 31 -47 40 -40 36 -131 -7 -203 -5 -8 -12 -23 -15 -33 -4 -9 -17
-20 -29 -23 -22 -5 -28 -18 -73 -149 -6 -16 -18 -59 -28 -95 -9 -36 -20 -74
-24 -85 -23 -59 -31 -83 -35 -115 -3 -19 -7 -44 -9 -55 -3 -11 -10 -47 -17
-80 -6 -33 -15 -67 -19 -76 -5 -9 -9 -51 -9 -95 -1 -43 -5 -114 -9 -157 -4
-42 -4 -81 0 -85 7 -7 17 -91 23 -202 1 -25 5 -56 8 -70 4 -14 8 -59 11 -100
2 -41 8 -84 12 -94 7 -19 8 -19 14 0 6 14 13 2 30 -51 22 -69 57 -201 64 -240
2 -11 8 -38 14 -60 6 -22 10 -52 10 -66 0 -15 9 -36 21 -48 11 -11 21 -30 21
-41 0 -20 23 -62 47 -88 7 -7 13 -19 13 -26 0 -7 9 -23 20 -36 11 -13 20 -28
20 -34 1 -14 65 -86 77 -86 4 0 17 -13 28 -30 18 -27 24 -29 73 -28 l52 2 -2
32 c-1 21 -6 30 -15 27 -7 -3 -11 -9 -8 -13 3 -5 -4 -8 -15 -7 -24 2 -26 13
-4 25 21 12 10 68 -15 81 -19 11 -47 62 -56 104 -3 15 -12 27 -19 27 -20 0
-56 62 -56 97 0 19 -11 43 -30 64 -16 19 -30 39 -30 46 0 7 -11 32 -24 55 -21
38 -22 47 -12 73 l13 30 1 -38 c2 -40 8 -57 22 -57 4 0 6 17 4 38 -2 20 -6 62
-9 91 -2 30 -8 66 -13 80 -20 55 -52 194 -52 225 0 13 -6 39 -14 57 -38 92
-68 485 -40 520 7 8 12 37 13 65 0 28 5 62 9 75 6 15 5 30 -1 40 -12 19 5 75
22 72 14 -4 15 24 1 32 -16 10 -12 52 10 92 11 21 20 47 20 59 0 11 5 35 11
52 6 17 11 45 12 62 1 17 6 29 10 28 5 -2 15 9 23 25 8 15 20 27 25 27 7 0 9
11 6 27 -4 24 20 74 45 93 12 9 28 60 28 88 0 29 -26 106 -47 137 -7 11 -13
32 -13 48 0 16 -5 38 -12 50 -11 21 -19 51 -37 142 -13 62 -15 69 -28 80 -15
12 -18 57 -8 102 6 26 3 33 -14 42 -12 7 -23 26 -27 49 -4 20 -14 42 -22 48
-11 8 -15 40 -17 140 -3 165 -13 228 -42 283 -12 24 -23 55 -23 69 0 13 -9 39
-20 57 -18 28 -18 34 -5 45 15 12 35 1 99 -56 18 -16 45 -25 131 -44 124 -28
153 -36 166 -46 18 -14 180 -64 207 -64 11 0 22 -5 24 -12 3 -7 29 -12 69 -13
35 -1 75 -7 87 -14 18 -10 27 -10 38 0 10 8 14 8 14 0 0 -6 9 -11 20 -11 11 0
20 5 20 10 0 15 36 12 50 -5 9 -10 30 -14 75 -13 35 1 61 6 59 10 -3 4 -11 8
-19 8 -7 0 -15 6 -18 13 -3 8 -38 24 -79 36 -40 13 -81 27 -90 32 -10 5 -30 9
-45 9 -16 0 -41 8 -56 19 -15 10 -38 16 -51 14 -13 -3 -27 0 -30 6 -4 6 -27
11 -51 11 -26 0 -50 6 -59 16 -9 8 -16 12 -16 8 0 -3 -6 -1 -13 5 -8 6 -17 8
-20 5 -3 -4 -23 0 -44 8 -21 9 -43 13 -50 11 -6 -2 -14 1 -18 6 -3 6 -13 11
-21 11 -24 0 -105 40 -110 54 -3 8 -26 19 -50 25 -25 7 -58 23 -72 36 -15 14
-34 25 -43 25 -9 0 -22 7 -30 16 -7 8 -29 24 -49 34 -36 18 -67 55 -76 88 -2
9 -10 45 -18 79 -7 35 -21 74 -30 87 -9 14 -16 39 -16 55 0 16 -4 33 -10 36
-5 3 -10 15 -10 25 0 10 -7 25 -15 33 -8 8 -12 17 -9 20 18 18 -56 124 -100
140 -9 4 -16 15 -16 25 0 10 -9 35 -20 57 -11 22 -20 54 -20 72 0 18 -3 33 -8
33 -22 0 -67 125 -77 213 -1 15 -3 32 -4 37 0 6 -8 10 -16 10 -9 0 -16 14 -20
38 -7 43 -19 68 -32 65 -5 -1 -14 34 -21 78 -13 83 -34 121 -60 112 -12 -5
-13 -2 -5 12 12 20 6 50 -14 80 -7 11 -13 29 -13 40 0 11 -16 37 -34 59 -24
27 -36 53 -41 85 -4 25 -12 53 -19 61 -18 20 -37 80 -30 92 3 5 0 15 -6 23 -7
8 -10 21 -7 29 7 17 -45 138 -74 175 -11 13 -19 36 -19 51 0 15 -8 47 -19 70
-10 23 -16 51 -13 62 4 18 10 15 51 -29 113 -123 181 -192 239 -245 34 -31 62
-62 62 -70 0 -19 58 -72 96 -87 18 -7 44 -25 59 -41 15 -16 41 -32 56 -35 16
-4 32 -12 36 -19 5 -7 31 -20 59 -29 28 -9 75 -32 104 -52 28 -19 56 -35 60
-35 4 0 51 -27 104 -61 134 -84 213 -112 285 -103 92 12 105 12 121 -1 8 -7
59 -15 115 -18 100 -5 191 7 275 38 20 7 58 16 85 20 77 11 164 43 193 71 15
14 39 32 54 40 15 8 38 25 52 39 14 14 32 25 42 25 30 0 73 33 80 62 7 33 100
128 125 128 18 0 42 24 33 32 -3 4 8 14 25 24 17 10 31 21 31 25 0 4 11 17 25
30 13 13 25 33 25 43 0 18 16 46 72 128 10 15 18 34 18 42 0 8 8 20 18 25 9 6
13 11 8 11 -4 0 3 15 18 34 14 19 26 43 26 54 0 10 9 27 20 37 11 10 22 27 26
39 14 49 48 105 69 114 17 8 24 22 30 59 8 63 13 225 7 237 -3 6 -4 44 -2 85
6 129 4 180 -7 203 -6 13 -16 49 -23 81 -6 31 -15 57 -20 57 -4 0 -13 12 -19
28 -12 32 -45 72 -59 72 -16 0 -20 -22 -10 -58 5 -18 6 -37 3 -43 -4 -5 -1
-16 5 -24 7 -8 14 -41 16 -73 2 -31 8 -73 14 -92 5 -19 10 -56 10 -82 0 -26 4
-49 9 -52 5 -3 5 -25 0 -48 -4 -24 -8 -64 -9 -89 0 -28 -6 -51 -14 -58 -8 -7
-18 -27 -21 -44 -9 -43 -35 -97 -57 -119 -10 -10 -18 -26 -18 -35 0 -25 -31
-103 -41 -103 -4 0 -17 -19 -27 -42 -11 -24 -33 -56 -51 -72 -17 -17 -31 -40
-31 -53 0 -15 -12 -30 -35 -45 -19 -13 -42 -40 -51 -60 -9 -21 -26 -41 -38
-44 -11 -4 -43 -31 -71 -60 -28 -30 -53 -54 -57 -54 -4 0 -19 -5 -35 -11 -15
-6 -28 -9 -29 -7 -2 9 -64 -62 -64 -74 0 -26 -31 -57 -64 -63 -23 -5 -33 -12
-32 -23 1 -11 -8 -18 -23 -20 -13 -2 -25 -12 -28 -22 -3 -11 -18 -21 -41 -25
-42 -8 -92 -32 -92 -44 0 -11 -97 -23 -167 -22 -41 1 -57 -4 -81 -24 -16 -14
-41 -25 -55 -25 -14 0 -29 -4 -32 -10 -6 -10 -248 -5 -266 6 -5 3 -25 0 -43
-7 -28 -10 -38 -10 -50 0 -9 7 -13 17 -10 22 6 10 -5 15 -59 24 -34 5 -37 8
-25 23 12 15 11 16 -4 3 -16 -12 -25 -10 -70 12 -29 14 -63 28 -75 32 -13 3
-23 10 -23 15 0 4 -19 18 -42 30 -23 12 -47 28 -53 36 -6 9 -17 16 -25 18 -38
7 -100 40 -100 52 0 8 -7 14 -15 14 -8 0 -15 4 -15 9 0 4 -21 16 -46 26 -44
17 -94 57 -200 163 -24 24 -43 46 -43 50 4 25 -3 41 -15 36 -8 -3 -21 10 -34
36 -11 23 -23 36 -27 31 -22 -36 -98 34 -117 107 -6 23 -16 42 -22 42 -6 0
-19 15 -29 33 -10 17 -32 39 -50 48 -18 9 -39 31 -50 52 -9 20 -21 37 -26 37
-10 0 -41 106 -41 143 0 14 -4 29 -10 32 -5 3 -10 15 -10 25 0 25 -46 130 -57
130 -5 0 -15 28 -22 63 -8 34 -19 73 -26 87 -7 14 -18 50 -25 80 -6 30 -23 83
-36 117 -13 34 -24 77 -24 96 0 19 -6 40 -14 46 -8 6 -19 42 -26 79 -7 37 -16
72 -20 77 -4 6 -11 35 -14 65 -16 130 -64 199 -97 138z"/>
<path d="M5088 6017 c-2 -7 -3 -34 -2 -62 2 -27 5 -88 7 -135 7 -130 42 -263
108 -407 15 -34 31 -74 35 -90 12 -56 16 -63 30 -63 8 0 14 -6 14 -12 0 -7 13
-40 29 -73 36 -73 105 -259 132 -356 11 -39 26 -78 34 -86 8 -8 15 -21 15 -28
0 -8 6 -18 14 -22 7 -4 29 -37 47 -73 28 -53 39 -65 59 -65 36 0 35 47 -2 87
-15 16 -28 37 -28 46 0 8 -11 30 -25 48 -15 20 -25 46 -25 66 0 19 -11 63 -25
98 -14 35 -25 71 -25 79 0 9 -9 22 -20 29 -12 7 -20 23 -20 41 0 15 -6 41 -14
57 -39 81 -62 144 -70 192 -3 19 -15 41 -27 51 -13 10 -29 44 -39 82 -18 67
-33 111 -57 168 -7 18 -16 53 -20 77 -3 24 -10 44 -14 44 -5 0 -9 6 -9 13 -1
6 -9 30 -20 52 -10 22 -16 43 -13 47 5 9 -12 104 -29 160 -11 38 -33 57 -40
35z"/>
<path d="M6201 3994 c-50 -26 -99 -44 -118 -44 -20 0 -36 -6 -39 -15 -4 -10
-15 -12 -35 -8 -16 3 -42 0 -58 -6 -24 -11 -54 -14 -178 -20 -7 -1 -13 -7 -13
-14 0 -7 -10 -13 -22 -14 -13 -1 -41 -7 -63 -12 -22 -6 -62 -13 -90 -16 -170
-19 -224 -25 -255 -30 -19 -3 -71 -7 -115 -10 -101 -6 -175 -14 -186 -20 -4
-3 -44 -6 -88 -6 -45 0 -81 -5 -81 -10 0 -14 -75 -11 -165 7 -96 18 -113 21
-143 28 -13 3 -34 0 -48 -6 -22 -10 -24 -17 -22 -56 3 -39 7 -46 33 -57 50
-21 118 -33 153 -28 18 3 46 -1 65 -10 26 -12 79 -14 291 -12 229 2 259 4 268
18 5 10 22 17 40 17 50 0 158 21 158 31 0 5 20 8 43 8 24 -1 50 2 57 6 8 5 33
8 56 6 24 -1 59 5 80 14 56 23 116 20 142 -8 12 -13 22 -33 22 -45 0 -22 60
-92 78 -92 27 0 42 14 42 39 0 15 5 32 11 38 11 11 -3 47 -26 66 -6 5 -3 7 8
3 14 -4 17 1 17 25 0 37 44 85 86 94 16 4 43 13 61 21 17 8 35 14 40 14 5 0
19 9 31 20 18 17 81 46 118 53 23 5 45 37 39 57 -5 16 -15 19 -58 18 -40 -1
-71 -11 -136 -44z"/>
<path d="M8205 3223 c-31 -37 -68 -90 -82 -118 -14 -27 -29 -52 -32 -55 -9 -7
-51 -109 -51 -124 0 -6 -8 -27 -19 -46 -10 -19 -26 -60 -36 -90 -10 -30 -24
-64 -31 -75 -8 -11 -14 -35 -14 -53 0 -19 -11 -56 -25 -84 -14 -27 -25 -60
-25 -73 0 -13 -9 -44 -20 -70 -11 -26 -20 -57 -20 -70 0 -12 -6 -28 -14 -34
-7 -6 -16 -34 -20 -61 -4 -27 -18 -79 -31 -115 -14 -36 -25 -76 -25 -88 0 -13
-4 -27 -9 -32 -6 -6 -17 -46 -26 -90 -9 -44 -23 -99 -31 -123 -8 -23 -14 -57
-14 -75 0 -18 -4 -37 -9 -42 -6 -6 -15 -46 -20 -90 -6 -44 -17 -125 -25 -180
-9 -58 -11 -102 -6 -105 12 -8 0 -80 -13 -80 -13 0 -78 49 -94 71 -7 10 -30
28 -50 40 -21 13 -42 28 -48 35 -5 6 -28 24 -50 40 -22 16 -42 32 -45 35 -3 4
-14 18 -25 33 -11 14 -25 26 -32 26 -6 0 -15 9 -18 20 -3 11 -12 20 -19 20 -7
0 -32 13 -54 30 -23 16 -45 30 -50 30 -4 0 -31 16 -59 35 -29 19 -57 35 -62
35 -6 0 -22 12 -38 26 -15 14 -40 28 -55 31 -15 3 -35 14 -44 25 -10 10 -37
27 -61 38 -24 10 -43 23 -43 29 0 5 -10 13 -22 17 -13 3 -34 14 -48 24 -14 9
-41 23 -60 30 -19 8 -37 17 -40 21 -3 4 -27 17 -53 28 -26 11 -47 24 -47 29 0
5 -17 16 -37 25 -21 8 -54 24 -73 35 -64 36 -164 80 -212 93 -27 7 -48 17 -48
22 0 5 -9 7 -21 4 -23 -6 -70 8 -80 25 -4 5 -30 12 -60 15 -29 3 -65 10 -79
16 -14 5 -31 9 -38 8 -8 -1 -22 5 -32 14 -10 9 -23 14 -28 11 -6 -3 -38 3 -72
13 -34 11 -70 18 -81 16 -10 -2 -19 -1 -19 3 0 4 -44 6 -97 5 -54 -2 -145 2
-203 9 -58 6 -125 11 -150 10 -25 -2 -66 2 -92 9 -35 8 -61 8 -95 0 -27 -6
-82 -13 -123 -16 -98 -7 -192 -25 -207 -41 -7 -7 -32 -15 -55 -19 -48 -8 -118
-35 -118 -46 0 -4 -13 -21 -30 -37 l-30 -30 70 2 c39 1 75 7 81 13 6 6 17 9
25 6 7 -2 52 4 101 16 77 17 150 23 418 34 62 2 369 -15 388 -22 12 -5 79 -9
148 -9 87 0 141 -5 173 -16 25 -9 64 -19 86 -22 21 -4 47 -15 56 -25 9 -10 33
-22 53 -25 20 -4 59 -17 86 -29 28 -13 60 -26 73 -30 12 -3 22 -10 22 -15 0
-4 20 -14 45 -21 25 -7 45 -18 45 -24 0 -11 90 -55 170 -84 25 -9 59 -26 75
-37 17 -12 45 -25 63 -29 18 -4 39 -17 48 -30 9 -14 33 -27 59 -34 30 -8 43
-15 39 -24 -3 -10 6 -14 32 -15 39 -2 64 -16 64 -38 0 -7 10 -16 23 -20 19 -6
46 -25 97 -67 34 -28 82 -57 105 -63 16 -4 25 -13 25 -25 0 -10 4 -19 8 -19 9
0 65 -47 137 -115 99 -93 136 -125 145 -125 4 0 31 -19 58 -43 28 -23 68 -51
89 -62 22 -11 59 -36 83 -55 23 -19 64 -52 89 -72 25 -20 55 -46 67 -58 12
-11 29 -20 38 -20 9 0 19 -6 22 -14 3 -7 26 -28 52 -47 26 -18 109 -94 184
-168 133 -133 293 -273 386 -339 25 -17 71 -56 103 -86 31 -30 66 -59 77 -65
12 -6 36 -25 54 -41 18 -17 38 -30 45 -30 7 0 13 -4 13 -9 0 -9 61 -51 74 -51
12 0 6 38 -9 50 -8 7 -15 18 -15 25 0 6 -11 18 -25 25 -13 7 -27 25 -30 40 -3
15 -17 38 -31 50 -13 13 -24 28 -24 33 0 13 -57 67 -63 60 -3 -2 -8 5 -12 17
-9 28 -169 187 -217 215 -17 10 -137 115 -191 168 -16 15 -31 27 -34 27 -2 0
-35 26 -71 58 -37 32 -92 76 -122 98 -54 41 -72 55 -140 114 -19 17 -45 38
-57 47 -17 11 -23 25 -23 54 0 21 -5 41 -10 44 -7 4 -7 12 0 25 5 10 10 39 10
63 0 25 7 64 15 88 9 24 15 66 14 94 -1 27 3 84 9 125 6 41 14 89 16 105 10
64 29 131 42 146 7 8 18 44 24 80 17 114 36 193 54 234 10 22 31 67 46 100 38
82 62 159 55 177 -4 9 -2 19 4 23 6 3 11 17 11 31 0 13 3 24 8 24 4 0 12 26
19 59 6 32 20 89 31 127 11 38 31 114 44 169 13 59 30 105 40 114 10 9 18 28
18 43 0 15 8 33 18 40 23 17 69 123 74 167 5 55 -16 47 -77 -26z"/>
</g>
</svg>
