<?xml version="1.0" encoding="UTF-8"?>
<svg xmlns="http://www.w3.org/2000/svg" xmlns:xlink="http://www.w3.org/1999/xlink" width="700pt" height="700pt" viewBox="0 0 700 700" version="1.1">
<g id="surface1">
<path style="fill:none;stroke-width:2;stroke-linecap:butt;stroke-linejoin:miter;stroke:rgb(100%,0%,0%);stroke-opacity:1;stroke-miterlimit:10;" d="M 55.605469 30.960938 L 55.605469 26.761719 L 70.765625 26.738281 L 70.765625 40.019531 C 68.4375 41.878906 66.035156 43.277344 63.5625 44.207031 C 61.085938 45.144531 58.546875 45.609375 55.945313 45.609375 C 52.425781 45.609375 49.230469 44.859375 46.363281 43.351563 C 43.488281 41.851563 41.320313 39.671875 39.855469 36.820313 C 38.390625 33.972656 37.660156 30.792969 37.660156 27.273438 C 37.660156 23.796875 38.386719 20.546875 39.84375 17.523438 C 41.300781 14.507813 43.398438 12.265625 46.132813 10.796875 C 48.867188 9.335938 52.015625 8.601563 55.582031 8.597656 C 58.164063 8.601563 60.503906 9.019531 62.597656 9.855469 C 64.691406 10.695313 66.332031 11.863281 67.519531 13.359375 C 68.707031 14.859375 69.609375 16.8125 70.230469 19.21875 L 65.957031 20.390625 C 65.417969 18.570313 64.75 17.140625 63.953125 16.09375 C 63.152344 15.054688 62.015625 14.21875 60.535156 13.59375 C 59.054688 12.96875 57.410156 12.65625 55.605469 12.652344 C 53.4375 12.65625 51.566406 12.984375 49.988281 13.640625 C 48.410156 14.300781 47.136719 15.167969 46.167969 16.242188 C 45.199219 17.316406 44.445313 18.496094 43.910156 19.78125 C 42.996094 21.996094 42.539063 24.398438 42.542969 26.984375 C 42.539063 30.175781 43.089844 32.84375 44.191406 34.988281 C 45.289063 37.140625 46.886719 38.734375 48.988281 39.773438 C 51.085938 40.816406 53.316406 41.339844 55.679688 41.335938 C 57.726563 41.339844 59.730469 40.945313 61.683594 40.152344 C 63.636719 39.367188 65.117188 38.523438 66.128906 37.625 L 66.128906 30.960938 Z M 94.9375 36.648438 L 99.476563 37.210938 C 98.757813 39.867188 97.429688 41.925781 95.496094 43.390625 C 93.558594 44.855469 91.085938 45.585938 88.074219 45.585938 C 84.28125 45.585938 81.273438 44.417969 79.054688 42.082031 C 76.828125 39.746094 75.71875 36.472656 75.722656 32.257813 C 75.71875 27.894531 76.839844 24.507813 79.089844 22.097656 C 81.332031 19.691406 84.246094 18.488281 87.832031 18.484375 C 91.292969 18.488281 94.125 19.667969 96.328125 22.027344 C 98.523438 24.390625 99.625 27.710938 99.625 31.988281 C 99.625 32.25 99.613281 32.640625 99.597656 33.160156 L 80.261719 33.160156 C 80.421875 36.007813 81.230469 38.1875 82.679688 39.703125 C 84.125 41.21875 85.929688 41.976563 88.101563 41.972656 C 89.707031 41.976563 91.082031 41.554688 92.222656 40.703125 C 93.359375 39.859375 94.265625 38.507813 94.9375 36.648438 Z M 80.507813 29.546875 L 94.984375 29.546875 C 94.789063 27.367188 94.234375 25.730469 93.324219 24.640625 C 91.921875 22.949219 90.105469 22.101563 87.878906 22.101563 C 85.855469 22.101563 84.160156 22.777344 82.789063 24.128906 C 81.410156 25.480469 80.648438 27.289063 80.507813 29.546875 Z M 122.746094 36.648438 L 127.285156 37.210938 C 126.566406 39.867188 125.238281 41.925781 123.304688 43.390625 C 121.367188 44.855469 118.894531 45.585938 115.882813 45.585938 C 112.089844 45.585938 109.082031 44.417969 106.863281 42.082031 C 104.636719 39.746094 103.527344 36.472656 103.53125 32.257813 C 103.527344 27.894531 104.648438 24.507813 106.898438 22.097656 C 109.140625 19.691406 112.054688 18.488281 115.640625 18.484375 C 119.101563 18.488281 121.933594 19.667969 124.136719 22.027344 C 126.332031 24.390625 127.433594 27.710938 127.433594 31.988281 C 127.433594 32.25 127.421875 32.640625 127.40625 33.160156 L 108.070313 33.160156 C 108.230469 36.007813 109.039063 38.1875 110.488281 39.703125 C 111.933594 41.21875 113.738281 41.976563 115.910156 41.972656 C 117.515625 41.976563 118.890625 41.554688 120.03125 40.703125 C 121.167969 39.859375 122.074219 38.507813 122.746094 36.648438 Z M 108.316406 29.546875 L 122.792969 29.546875 C 122.597656 27.367188 122.042969 25.730469 121.132813 24.640625 C 119.730469 22.949219 117.914063 22.101563 115.6875 22.101563 C 113.664063 22.101563 111.96875 22.777344 110.597656 24.128906 C 109.21875 25.480469 108.457031 27.289063 108.316406 29.546875 Z M 132.828125 45 L 132.828125 9.210938 L 137.222656 9.210938 L 137.222656 29.617188 L 147.625 19.070313 L 153.3125 19.070313 L 143.398438 28.691406 L 154.3125 45 L 148.890625 45 L 140.324219 31.742188 L 137.222656 34.722656 L 137.222656 45 Z M 156.046875 37.261719 L 160.390625 36.578125 C 160.632813 38.320313 161.3125 39.652344 162.429688 40.582031 C 163.542969 41.511719 165.101563 41.976563 167.105469 41.972656 C 169.121094 41.976563 170.617188 41.566406 171.597656 40.742188 C 172.570313 39.921875 173.058594 38.957031 173.0625 37.847656 C 173.058594 36.859375 172.628906 36.078125 171.769531 35.503906 C 171.167969 35.117188 169.667969 34.621094 167.277344 34.015625 C 164.050781 33.203125 161.816406 32.5 160.574219 31.902344 C 159.324219 31.3125 158.382813 30.488281 157.742188 29.4375 C 157.097656 28.386719 156.773438 27.226563 156.777344 25.957031 C 156.773438 24.800781 157.039063 23.730469 157.570313 22.746094 C 158.097656 21.761719 158.820313 20.945313 159.734375 20.292969 C 160.414063 19.789063 161.34375 19.363281 162.527344 19.011719 C 163.703125 18.664063 164.96875 18.488281 166.324219 18.484375 C 168.355469 18.488281 170.140625 18.78125 171.683594 19.363281 C 173.21875 19.953125 174.355469 20.746094 175.089844 21.746094 C 175.820313 22.75 176.324219 24.089844 176.601563 25.761719 L 172.304688 26.347656 C 172.105469 25.015625 171.539063 23.972656 170.605469 23.222656 C 169.667969 22.476563 168.347656 22.101563 166.640625 22.101563 C 164.621094 22.101563 163.179688 22.4375 162.320313 23.101563 C 161.453125 23.773438 161.023438 24.554688 161.027344 25.445313 C 161.023438 26.015625 161.203125 26.527344 161.5625 26.984375 C 161.921875 27.457031 162.484375 27.847656 163.25 28.15625 C 163.6875 28.320313 164.980469 28.695313 167.128906 29.277344 C 170.238281 30.113281 172.40625 30.792969 173.636719 31.316406 C 174.863281 31.847656 175.828125 32.617188 176.527344 33.625 C 177.226563 34.636719 177.574219 35.886719 177.578125 37.382813 C 177.574219 38.847656 177.148438 40.226563 176.296875 41.519531 C 175.441406 42.816406 174.207031 43.820313 172.597656 44.523438 C 170.980469 45.234375 169.160156 45.585938 167.128906 45.585938 C 163.761719 45.585938 161.191406 44.886719 159.425781 43.488281 C 157.65625 42.089844 156.53125 40.015625 156.046875 37.261719 Z M 183.851563 45 L 183.851563 22.492188 L 179.972656 22.492188 L 179.972656 19.070313 L 183.851563 19.070313 L 183.851563 16.3125 C 183.847656 14.574219 184.003906 13.28125 184.316406 12.429688 C 184.738281 11.292969 185.484375 10.371094 186.550781 9.660156 C 187.613281 8.957031 189.105469 8.601563 191.03125 8.597656 C 192.265625 8.601563 193.632813 8.75 195.132813 9.039063 L 194.472656 12.871094 C 193.558594 12.710938 192.695313 12.628906 191.886719 12.625 C 190.546875 12.628906 189.601563 12.914063 189.050781 13.480469 C 188.496094 14.054688 188.21875 15.121094 188.222656 16.679688 L 188.222656 19.070313 L 193.277344 19.070313 L 193.277344 22.492188 L 188.222656 22.492188 L 188.222656 45 Z M 195.058594 32.035156 C 195.054688 27.238281 196.390625 23.683594 199.0625 21.367188 C 201.289063 19.449219 204.007813 18.488281 207.21875 18.484375 C 210.777344 18.488281 213.691406 19.65625 215.957031 21.988281 C 218.21875 24.328125 219.347656 27.554688 219.351563 31.671875 C 219.347656 35.011719 218.847656 37.636719 217.847656 39.546875 C 216.84375 41.460938 215.386719 42.945313 213.476563 44 C 211.5625 45.058594 209.476563 45.585938 207.21875 45.585938 C 203.585938 45.585938 200.652344 44.421875 198.414063 42.09375 C 196.175781 39.765625 195.054688 36.414063 195.058594 32.035156 Z M 199.574219 32.035156 C 199.574219 35.359375 200.296875 37.847656 201.746094 39.496094 C 203.195313 41.152344 205.019531 41.976563 207.21875 41.972656 C 209.394531 41.976563 211.207031 41.148438 212.660156 39.484375 C 214.105469 37.828125 214.832031 35.296875 214.835938 31.890625 C 214.832031 28.6875 214.101563 26.257813 212.648438 24.601563 C 211.1875 22.953125 209.378906 22.125 207.21875 22.125 C 205.019531 22.125 203.195313 22.949219 201.746094 24.589844 C 200.296875 26.238281 199.574219 28.71875 199.574219 32.035156 Z M 224.453125 45 L 224.453125 19.070313 L 228.410156 19.070313 L 228.410156 23.003906 C 229.414063 21.164063 230.347656 19.953125 231.203125 19.363281 C 232.058594 18.78125 232.996094 18.488281 234.023438 18.484375 C 235.5 18.488281 237.007813 18.960938 238.542969 19.902344 L 237.027344 23.980469 C 235.953125 23.347656 234.878906 23.027344 233.804688 23.027344 C 232.84375 23.027344 231.980469 23.316406 231.214844 23.894531 C 230.449219 24.472656 229.902344 25.273438 229.582031 26.296875 C 229.089844 27.859375 228.847656 29.570313 228.847656 31.425781 L 228.847656 45 Z M 258.460938 30.960938 L 258.460938 26.761719 L 273.621094 26.738281 L 273.621094 40.019531 C 271.292969 41.878906 268.890625 43.277344 266.417969 44.207031 C 263.941406 45.144531 261.402344 45.609375 258.800781 45.609375 C 255.28125 45.609375 252.085938 44.859375 249.21875 43.351563 C 246.34375 41.851563 244.175781 39.671875 242.710938 36.820313 C 241.246094 33.972656 240.515625 30.792969 240.515625 27.273438 C 240.515625 23.796875 241.242188 20.546875 242.699219 17.523438 C 244.15625 14.507813 246.253906 12.265625 248.988281 10.796875 C 251.722656 9.335938 254.871094 8.601563 258.4375 8.597656 C 261.019531 8.601563 263.359375 9.019531 265.453125 9.855469 C 267.546875 10.695313 269.1875 11.863281 270.375 13.359375 C 271.5625 14.859375 272.464844 16.8125 273.085938 19.21875 L 268.8125 20.390625 C 268.273438 18.570313 267.605469 17.140625 266.808594 16.09375 C 266.007813 15.054688 264.871094 14.21875 263.390625 13.59375 C 261.910156 12.96875 260.265625 12.65625 258.460938 12.652344 C 256.292969 12.65625 254.421875 12.984375 252.84375 13.640625 C 251.265625 14.300781 249.992188 15.167969 249.023438 16.242188 C 248.054688 17.316406 247.300781 18.496094 246.765625 19.78125 C 245.851563 21.996094 245.394531 24.398438 245.398438 26.984375 C 245.394531 30.175781 245.945313 32.84375 247.046875 34.988281 C 248.144531 37.140625 249.742188 38.734375 251.84375 39.773438 C 253.941406 40.816406 256.171875 41.339844 258.535156 41.335938 C 260.582031 41.339844 262.585938 40.945313 264.539063 40.152344 C 266.492188 39.367188 267.972656 38.523438 268.984375 37.625 L 268.984375 30.960938 Z M 297.796875 36.648438 L 302.335938 37.210938 C 301.617188 39.867188 300.289063 41.925781 298.355469 43.390625 C 296.417969 44.855469 293.945313 45.585938 290.933594 45.585938 C 287.140625 45.585938 284.132813 44.417969 281.914063 42.082031 C 279.6875 39.746094 278.578125 36.472656 278.582031 32.257813 C 278.578125 27.894531 279.699219 24.507813 281.949219 22.097656 C 284.191406 19.691406 287.105469 18.488281 290.691406 18.484375 C 294.152344 18.488281 296.984375 19.667969 299.1875 22.027344 C 301.382813 24.390625 302.484375 27.710938 302.484375 31.988281 C 302.484375 32.25 302.472656 32.640625 302.457031 33.160156 L 283.121094 33.160156 C 283.28125 36.007813 284.089844 38.1875 285.539063 39.703125 C 286.984375 41.21875 288.789063 41.976563 290.960938 41.972656 C 292.566406 41.976563 293.941406 41.554688 295.082031 40.703125 C 296.21875 39.859375 297.125 38.507813 297.796875 36.648438 Z M 283.367188 29.546875 L 297.84375 29.546875 C 297.648438 27.367188 297.09375 25.730469 296.183594 24.640625 C 294.78125 22.949219 292.964844 22.101563 290.738281 22.101563 C 288.714844 22.101563 287.019531 22.777344 285.648438 24.128906 C 284.269531 25.480469 283.507813 27.289063 283.367188 29.546875 Z M 325.601563 36.648438 L 330.140625 37.210938 C 329.421875 39.867188 328.09375 41.925781 326.160156 43.390625 C 324.222656 44.855469 321.75 45.585938 318.738281 45.585938 C 314.945313 45.585938 311.9375 44.417969 309.71875 42.082031 C 307.492188 39.746094 306.382813 36.472656 306.386719 32.257813 C 306.382813 27.894531 307.503906 24.507813 309.753906 22.097656 C 311.996094 19.691406 314.910156 18.488281 318.496094 18.484375 C 321.957031 18.488281 324.789063 19.667969 326.992188 22.027344 C 329.1875 24.390625 330.289063 27.710938 330.289063 31.988281 C 330.289063 32.25 330.277344 32.640625 330.261719 33.160156 L 310.925781 33.160156 C 311.085938 36.007813 311.894531 38.1875 313.34375 39.703125 C 314.789063 41.21875 316.59375 41.976563 318.765625 41.972656 C 320.371094 41.976563 321.746094 41.554688 322.886719 40.703125 C 324.023438 39.859375 324.929688 38.507813 325.601563 36.648438 Z M 311.171875 29.546875 L 325.648438 29.546875 C 325.453125 27.367188 324.898438 25.730469 323.988281 24.640625 C 322.585938 22.949219 320.769531 22.101563 318.542969 22.101563 C 316.519531 22.101563 314.824219 22.777344 313.453125 24.128906 C 312.074219 25.480469 311.3125 27.289063 311.171875 29.546875 Z M 335.683594 45 L 335.683594 9.210938 L 340.078125 9.210938 L 340.078125 29.617188 L 350.480469 19.070313 L 356.167969 19.070313 L 346.253906 28.691406 L 357.167969 45 L 351.746094 45 L 343.179688 31.742188 L 340.078125 34.722656 L 340.078125 45 Z M 358.902344 37.261719 L 363.246094 36.578125 C 363.488281 38.320313 364.167969 39.652344 365.285156 40.582031 C 366.398438 41.511719 367.957031 41.976563 369.960938 41.972656 C 371.976563 41.976563 373.472656 41.566406 374.453125 40.742188 C 375.425781 39.921875 375.914063 38.957031 375.917969 37.847656 C 375.914063 36.859375 375.484375 36.078125 374.625 35.503906 C 374.023438 35.117188 372.523438 34.621094 370.132813 34.015625 C 366.90625 33.203125 364.671875 32.5 363.429688 31.902344 C 362.179688 31.3125 361.238281 30.488281 360.597656 29.4375 C 359.953125 28.386719 359.628906 27.226563 359.632813 25.957031 C 359.628906 24.800781 359.894531 23.730469 360.425781 22.746094 C 360.953125 21.761719 361.675781 20.945313 362.589844 20.292969 C 363.269531 19.789063 364.199219 19.363281 365.382813 19.011719 C 366.558594 18.664063 367.824219 18.488281 369.179688 18.484375 C 371.210938 18.488281 372.996094 18.78125 374.539063 19.363281 C 376.074219 19.953125 377.210938 20.746094 377.945313 21.746094 C 378.675781 22.75 379.179688 24.089844 379.457031 25.761719 L 375.160156 26.347656 C 374.960938 25.015625 374.394531 23.972656 373.460938 23.222656 C 372.523438 22.476563 371.203125 22.101563 369.496094 22.101563 C 367.476563 22.101563 366.035156 22.4375 365.175781 23.101563 C 364.308594 23.773438 363.878906 24.554688 363.882813 25.445313 C 363.878906 26.015625 364.058594 26.527344 364.417969 26.984375 C 364.777344 27.457031 365.339844 27.847656 366.105469 28.15625 C 366.542969 28.320313 367.835938 28.695313 369.984375 29.277344 C 373.09375 30.113281 375.261719 30.792969 376.492188 31.316406 C 377.71875 31.847656 378.683594 32.617188 379.382813 33.625 C 380.082031 34.636719 380.429688 35.886719 380.433594 37.382813 C 380.429688 38.847656 380.003906 40.226563 379.152344 41.519531 C 378.296875 42.816406 377.0625 43.820313 375.453125 44.523438 C 373.835938 45.234375 372.015625 45.585938 369.984375 45.585938 C 366.617188 45.585938 364.046875 44.886719 362.28125 43.488281 C 360.511719 42.089844 359.386719 40.015625 358.902344 37.261719 Z M 386.902344 45 L 386.902344 39.996094 L 391.910156 39.996094 L 391.910156 45 Z M 397.914063 32.035156 C 397.910156 27.238281 399.246094 23.683594 401.917969 21.367188 C 404.144531 19.449219 406.863281 18.488281 410.074219 18.484375 C 413.632813 18.488281 416.546875 19.65625 418.8125 21.988281 C 421.074219 24.328125 422.203125 27.554688 422.207031 31.671875 C 422.203125 35.011719 421.703125 37.636719 420.703125 39.546875 C 419.699219 41.460938 418.242188 42.945313 416.332031 44 C 414.417969 45.058594 412.332031 45.585938 410.074219 45.585938 C 406.441406 45.585938 403.507813 44.421875 401.269531 42.09375 C 399.03125 39.765625 397.910156 36.414063 397.914063 32.035156 Z M 402.429688 32.035156 C 402.429688 35.359375 403.152344 37.847656 404.601563 39.496094 C 406.050781 41.152344 407.875 41.976563 410.074219 41.972656 C 412.25 41.976563 414.0625 41.148438 415.515625 39.484375 C 416.960938 37.828125 417.6875 35.296875 417.691406 31.890625 C 417.6875 28.6875 416.957031 26.257813 415.503906 24.601563 C 414.042969 22.953125 412.234375 22.125 410.074219 22.125 C 407.875 22.125 406.050781 22.949219 404.601563 24.589844 C 403.152344 26.238281 402.429688 28.71875 402.429688 32.035156 Z M 427.308594 45 L 427.308594 19.070313 L 431.265625 19.070313 L 431.265625 23.003906 C 432.269531 21.164063 433.203125 19.953125 434.058594 19.363281 C 434.914063 18.78125 435.851563 18.488281 436.878906 18.484375 C 438.355469 18.488281 439.863281 18.960938 441.398438 19.902344 L 439.882813 23.980469 C 438.808594 23.347656 437.734375 23.027344 436.660156 23.027344 C 435.699219 23.027344 434.835938 23.316406 434.070313 23.894531 C 433.304688 24.472656 432.757813 25.273438 432.4375 26.296875 C 431.945313 27.859375 431.703125 29.570313 431.703125 31.425781 L 431.703125 45 Z M 443.203125 47.148438 L 447.472656 47.78125 C 447.652344 49.097656 448.148438 50.058594 448.960938 50.664063 C 450.050781 51.472656 451.539063 51.878906 453.429688 51.882813 C 455.464844 51.878906 457.035156 51.472656 458.144531 50.664063 C 459.246094 49.847656 459.996094 48.707031 460.390625 47.246094 C 460.613281 46.347656 460.71875 44.472656 460.707031 41.605469 C 458.78125 43.871094 456.386719 45 453.527344 45 C 449.957031 45 447.199219 43.714844 445.25 41.144531 C 443.292969 38.574219 442.316406 35.492188 442.320313 31.890625 C 442.316406 29.421875 442.765625 27.136719 443.664063 25.042969 C 444.558594 22.953125 445.855469 21.339844 447.558594 20.195313 C 449.257813 19.058594 451.257813 18.488281 453.554688 18.484375 C 456.609375 18.488281 459.128906 19.722656 461.121094 22.195313 L 461.121094 19.070313 L 465.171875 19.070313 L 465.171875 41.484375 C 465.167969 45.519531 464.757813 48.378906 463.9375 50.066406 C 463.117188 51.75 461.8125 53.082031 460.03125 54.058594 C 458.246094 55.035156 456.054688 55.523438 453.453125 55.523438 C 450.359375 55.523438 447.859375 54.824219 445.957031 53.433594 C 444.050781 52.039063 443.132813 49.945313 443.203125 47.148438 Z M 446.839844 31.570313 C 446.839844 34.976563 447.511719 37.460938 448.863281 39.019531 C 450.210938 40.585938 451.90625 41.367188 453.945313 41.363281 C 455.957031 41.367188 457.648438 40.589844 459.019531 39.03125 C 460.382813 37.480469 461.066406 35.042969 461.070313 31.71875 C 461.066406 28.546875 460.363281 26.15625 458.957031 24.542969 C 457.550781 22.933594 455.855469 22.125 453.871094 22.125 C 451.917969 22.125 450.257813 22.917969 448.890625 24.503906 C 447.523438 26.089844 446.839844 28.445313 446.839844 31.570313 Z M 468.519531 45 "/>
</g>
</svg>
