<?xml version="1.0" standalone="no"?>
<!DOCTYPE svg PUBLIC "-//W3C//DTD SVG 20010904//EN"
 "http://www.w3.org/TR/2001/REC-SVG-20010904/DTD/svg10.dtd">
<svg version="1.0" xmlns="http://www.w3.org/2000/svg"
 width="146.000000pt" height="147.000000pt" viewBox="0 0 146.000000 147.000000"
 preserveAspectRatio="xMidYMid meet">

<g transform="translate(0.000000,147.000000) scale(0.100000,-0.100000)"
fill="#000000" stroke="none">
<path d="M859 1405 c-6 -5 -276 -11 -696 -14 l-163 -1 0 -35 0 -35 381 0 c357
0 380 -1 377 -17 -3 -16 -20 -18 -193 -18 -381 0 -565 -5 -565 -15 0 -6 53
-10 138 -10 129 -1 135 -2 103 -15 -22 -10 -68 -15 -137 -15 -97 0 -104 -1
-104 -20 0 -18 7 -20 66 -20 41 0 63 -4 59 -10 -3 -5 -33 -10 -66 -10 -46 0
-59 -3 -59 -15 0 -10 10 -15 32 -15 l32 0 -32 -33 c-32 -32 -32 -34 -32 -130
0 -96 6 -111 30 -81 22 26 50 36 81 29 16 -4 29 -10 29 -14 0 -5 -31 -29 -70
-55 l-70 -46 0 -405 0 -405 226 0 c193 0 225 2 221 14 -6 15 29 33 40 22 4 -3
1 -6 -5 -6 -7 0 -12 -7 -12 -15 0 -11 11 -15 36 -15 35 0 36 1 32 30 -4 25 0
31 24 39 31 11 35 2 18 -43 l-10 -26 150 0 c88 0 151 4 155 10 4 6 113 10 296
10 l289 0 0 45 0 45 -235 0 c-233 0 -236 0 -225 20 10 19 21 20 236 20 l225 0
-2 49 c-2 41 -6 51 -26 60 -14 6 -22 7 -19 2 3 -5 -3 -7 -15 -4 -14 4 -17 8
-9 13 8 5 1 10 -18 15 -19 4 -43 21 -62 45 -20 25 -41 40 -58 42 -38 4 -92 88
-92 143 0 65 9 71 69 40 70 -35 86 -27 23 12 -28 17 -56 41 -62 54 l-12 22 30
-21 c33 -24 47 -28 36 -10 -4 7 -3 8 5 4 6 -4 9 -11 6 -16 -6 -10 23 -22 35
-15 5 3 11 1 15 -4 3 -6 13 -7 22 -4 10 4 14 2 10 -4 -4 -6 2 -13 13 -16 10
-3 25 -20 33 -40 19 -43 77 -87 77 -58 0 5 -9 13 -20 16 -11 3 -20 11 -20 17
0 6 6 6 15 -2 9 -7 18 -10 21 -7 6 6 -25 25 -41 25 -5 0 -11 6 -14 13 -2 7 1
9 9 4 9 -6 9 -3 0 14 -6 12 -18 25 -26 28 -8 3 -14 12 -14 20 0 10 -6 12 -20
8 -21 -7 -60 10 -60 25 0 6 21 10 48 11 44 1 45 1 17 10 -32 9 -43 44 -18 53
7 3 13 1 13 -5 0 -7 7 -8 18 -4 9 4 26 8 37 11 11 2 28 13 38 25 15 18 17 45
17 206 0 159 -2 184 -15 180 -8 -4 -17 -2 -20 3 -3 5 -12 7 -19 4 -7 -3 -16 2
-19 10 -5 13 1 16 33 16 29 0 40 4 40 15 0 11 -12 15 -49 15 -47 0 -76 13 -49
23 19 6 -9 37 -34 37 -11 0 -29 5 -41 11 l-21 12 24 10 c23 10 20 11 -30 19
-30 4 -79 11 -107 14 -107 13 -48 24 127 24 l180 0 0 34 0 35 -262 4 c-145 3
-279 8 -298 12 -19 4 -38 4 -41 0z m-177 -167 c-8 -8 -9 -4 -5 13 4 13 8 18
11 10 2 -7 -1 -18 -6 -23z m68 12 c0 -5 -7 -7 -15 -4 -8 4 -15 8 -15 10 0 2 7
4 15 4 8 0 15 -4 15 -10z m330 -95 c36 -48 45 -55 75 -55 24 0 38 6 45 19 5
11 17 27 26 35 14 14 17 14 30 1 8 -8 21 -18 28 -22 28 -17 66 -86 66 -122 0
-56 -19 -111 -47 -137 -58 -54 -202 -7 -228 75 -3 12 -11 21 -16 21 -5 0 -9 5
-9 11 0 20 -41 69 -52 63 -7 -4 -8 -2 -4 4 10 16 -14 50 -33 47 -9 -1 -11 0
-5 2 7 2 15 21 19 41 7 40 30 72 51 72 7 0 32 -25 54 -55z m-430 -20 c4 3 24
-2 44 -10 19 -8 47 -15 61 -15 21 0 25 -5 25 -27 0 -16 -5 -35 -10 -43 -8 -13
-10 -13 -10 1 0 13 -8 16 -35 13 -19 -1 -40 -6 -45 -9 -6 -3 -10 -1 -10 5 0 6
-5 8 -11 5 -5 -4 -50 1 -98 11 -71 14 -98 16 -136 7 -41 -9 -51 -8 -86 11 -21
11 -39 24 -39 28 0 18 274 41 318 26 13 -5 27 -6 32 -3z m-472 -77 c-5 -15
-48 -24 -48 -10 0 14 12 22 33 22 10 0 17 -5 15 -12z m667 -27 c-3 -12 -10
-21 -15 -21 -4 0 -3 11 3 24 14 29 22 27 12 -3z m-35 -31 c0 -5 -5 -10 -11
-10 -5 0 -7 5 -4 10 3 6 8 10 11 10 2 0 4 -4 4 -10z m40 -49 c15 -29 13 -31
-32 -31 -34 1 -47 6 -61 25 l-18 25 50 0 c39 0 53 -4 61 -19z m26 -8 c-10 -10
-19 5 -10 18 6 11 8 11 12 0 2 -7 1 -15 -2 -18z m-235 -48 c25 -44 24 -91 -2
-98 -49 -13 -99 32 -99 89 0 40 7 46 49 42 26 -2 39 -10 52 -33z m-357 -42
c76 -41 144 -101 171 -153 21 -41 44 -151 38 -181 -3 -15 -28 -41 -63 -66 -63
-45 -70 -43 -70 18 0 103 -127 239 -284 304 -21 9 -36 19 -32 22 23 23 135 92
150 92 10 1 50 -16 90 -36z m715 -119 c11 -17 12 -15 6 9 -7 36 8 28 25 -13 7
-16 16 -28 20 -25 8 5 25 -83 18 -91 -3 -2 -23 16 -45 39 -39 41 -41 46 -46
122 -5 62 -4 68 2 29 5 -28 14 -60 20 -70z m-99 40 c0 -17 -22 -14 -28 4 -2 7
3 12 12 12 9 0 16 -7 16 -16z m71 -142 c8 -22 6 -23 -24 -20 -25 2 -33 8 -35
26 -3 20 0 23 24 20 17 -2 30 -11 35 -26z m39 -77 c17 -20 14 -22 -42 -30 -47
-7 -48 -7 -48 19 0 24 4 26 39 26 22 0 44 -6 51 -15z m59 -100 c14 -14 -21
-25 -80 -25 -64 0 -69 2 -69 21 0 21 3 21 73 14 39 -3 74 -8 76 -10z m-23 -97
c3 -4 -5 -26 -18 -50 -23 -43 -23 -43 -86 -46 -57 -3 -63 -1 -58 15 3 10 8 32
12 48 4 17 9 34 12 39 5 9 127 4 138 -6z m149 -35 c25 -26 45 -50 45 -55 0 -4
-34 -8 -76 -8 -57 0 -75 3 -71 13 31 78 41 97 48 97 5 0 30 -21 54 -47z m35
-103 c21 -15 23 -21 12 -32 -11 -11 -17 -9 -32 12 -33 43 -23 53 20 20z m-947
-90 c-3 -11 -12 -20 -19 -20 -16 0 -16 2 -8 24 9 24 33 20 27 -4z m607 5 c-7
-8 -16 -15 -20 -15 -4 0 -10 7 -14 15 -4 11 2 15 21 15 21 0 24 -2 13 -15z"/>
<path d="M1325 1270 c3 -5 35 -10 71 -10 36 0 64 4 64 10 0 6 -30 10 -71 10
-44 0 -68 -4 -64 -10z"/>
<path d="M1397 1210 c-4 -17 0 -20 29 -20 27 0 34 4 34 20 0 15 -7 20 -29 20
-20 0 -30 -6 -34 -20z"/>
<path d="M1375 670 c-16 -7 -17 -9 -3 -9 9 -1 20 4 23 9 7 11 7 11 -20 0z"/>
<path d="M1439 663 c-13 -16 -12 -17 4 -4 16 13 21 21 13 21 -2 0 -10 -8 -17
-17z"/>
</g>
</svg>
