<?xml version="1.0" encoding="UTF-8"?>
<svg xmlns="http://www.w3.org/2000/svg" xmlns:xlink="http://www.w3.org/1999/xlink" width="100pt" height="100pt" viewBox="0 0 100 100" version="1.1">
<g id="surface1">
<path style="fill:none;stroke-width:2;stroke-linecap:butt;stroke-linejoin:miter;stroke:rgb(100%,0%,0%);stroke-opacity:1;stroke-miterlimit:10;" d="M 39.003906 45 L 39.003906 9.210938 L 43.742188 9.210938 L 43.742188 23.90625 L 62.34375 23.90625 L 62.34375 9.210938 L 67.078125 9.210938 L 67.078125 45 L 62.34375 45 L 62.34375 28.128906 L 43.742188 28.128906 L 43.742188 45 Z M 92.15625 36.648438 L 96.695313 37.210938 C 95.976563 39.867188 94.648438 41.925781 92.714844 43.390625 C 90.777344 44.855469 88.304688 45.585938 85.292969 45.585938 C 81.5 45.585938 78.492188 44.417969 76.273438 42.082031 C 74.046875 39.746094 72.9375 36.472656 72.941406 32.257813 C 72.9375 27.894531 74.058594 24.507813 76.308594 22.097656 C 78.550781 19.691406 81.464844 18.488281 85.050781 18.484375 C 88.511719 18.488281 91.34375 19.667969 93.546875 22.027344 C 95.742188 24.390625 96.84375 27.710938 96.84375 31.988281 C 96.84375 32.25 96.832031 32.640625 96.816406 33.160156 L 77.480469 33.160156 C 77.640625 36.007813 78.449219 38.1875 79.898438 39.703125 C 81.34375 41.21875 83.148438 41.976563 85.320313 41.972656 C 86.925781 41.976563 88.300781 41.554688 89.441406 40.703125 C 90.578125 39.859375 91.484375 38.507813 92.15625 36.648438 Z M 77.726563 29.546875 L 92.203125 29.546875 C 92.007813 27.367188 91.453125 25.730469 90.542969 24.640625 C 89.140625 22.949219 87.324219 22.101563 85.097656 22.101563 C 83.074219 22.101563 81.378906 22.777344 80.007813 24.128906 C 78.628906 25.480469 77.867188 27.289063 77.726563 29.546875 Z M 102.1875 14.3125 L 102.1875 9.210938 L 106.578125 9.210938 L 106.578125 14.3125 Z M 96.617188 55.058594 L 97.449219 51.324219 C 98.328125 51.546875 99.019531 51.660156 99.523438 51.664063 C 100.417969 51.660156 101.085938 51.363281 101.527344 50.773438 C 101.964844 50.175781 102.183594 48.691406 102.1875 46.320313 L 102.1875 19.070313 L 106.578125 19.070313 L 106.578125 46.414063 C 106.578125 49.601563 106.164063 51.824219 105.335938 53.082031 C 104.277344 54.707031 102.519531 55.523438 100.0625 55.523438 C 98.875 55.523438 97.726563 55.367188 96.617188 55.058594 Z M 110.023438 45 "/>
</g>
</svg>
