<?xml version="1.0" encoding="UTF-8" standalone="no"?>
<!-- Created with Inkscape (http://www.inkscape.org/) -->

<svg
   xmlns:dc="http://purl.org/dc/elements/1.1/"
   xmlns:cc="http://creativecommons.org/ns#"
   xmlns:rdf="http://www.w3.org/1999/02/22-rdf-syntax-ns#"
   xmlns:svg="http://www.w3.org/2000/svg"
   xmlns="http://www.w3.org/2000/svg"
   xmlns:sodipodi="http://sodipodi.sourceforge.net/DTD/sodipodi-0.dtd"
   xmlns:inkscape="http://www.inkscape.org/namespaces/inkscape"
   width="1297.1536"
   height="640.02838"
   id="svg2"
   version="1.1"
   inkscape:version="0.48.5 r10040"
   sodipodi:docname="world map color.svg">
  <defs
     id="defs4" />
  <sodipodi:namedview
     id="base"
     pagecolor="#ffffff"
     bordercolor="#666666"
     borderopacity="1.0"
     inkscape:pageopacity="0.0"
     inkscape:pageshadow="2"
     inkscape:zoom="0.98994949"
     inkscape:cx="637.37212"
     inkscape:cy="347.00587"
     inkscape:document-units="px"
     inkscape:current-layer="layer1"
     showgrid="false"
     fit-margin-top="20"
     fit-margin-left="20"
     fit-margin-right="20"
     fit-margin-bottom="20"
     inkscape:window-width="1920"
     inkscape:window-height="1012"
     inkscape:window-x="-8"
     inkscape:window-y="-8"
     inkscape:window-maximized="1"
     inkscape:object-paths="false" />
  <metadata
     id="metadata7">
    <rdf:RDF>
      <cc:Work
         rdf:about="">
        <dc:format>image/svg+xml</dc:format>
        <dc:type
           rdf:resource="http://purl.org/dc/dcmitype/StillImage" />
        <dc:title />
      </cc:Work>
    </rdf:RDF>
  </metadata>
  <g
     inkscape:label="Layer 1"
     inkscape:groupmode="layer"
     id="layer1"
     transform="translate(252.59695,-192.92649)">
    <path
       inkscape:connector-curvature="0"
       style="fill:#d5c900;fill-opacity:1"
       d="m 391.42969,718.8958 c -5.03963,-18.29955 -17.17965,-34.40547 -18.49418,-53.74675 -12.06963,-15.78248 -8.14216,-37.44889 -1.28096,-54.55283 0.34179,-18.85331 -22.38977,-31.3833 -16.60553,-51.0067 -3.09882,-20.91898 -30.23386,-27.69675 -47.12038,-19.19494 -20.01349,8.21278 -44.8158,-1.84167 -53.77804,-21.45756 -10.58453,-17.1565 -8.30353,-39.32313 -3.43904,-57.93179 6.5633,-15.66279 20.37941,-26.52383 28.58115,-41.12376 10.08438,-12.31925 26.30702,-16.81028 41.44096,-18.4713 16.13287,-5.75988 39.58206,-3.45595 46.27366,14.87214 10.07018,12.91603 27.35301,6.70779 40.67808,4.3291 18.18027,-2.67779 37.44989,7.06592 45.38382,23.90433 9.30234,19.76183 17.91768,40.12525 31.19275,57.67826 5.22892,17.17899 28.75622,7.3001 37.72677,19.61743 2.25256,15.67058 -13.91895,26.83498 -23.33162,37.36889 -10.42821,10.98303 -26.19626,24.16764 -21.48,41.05043 7.56778,16.86861 5.55965,35.48056 -10.49933,45.86996 -11.88764,16.91205 -13.39466,39.17627 -27.48742,54.87719 -10.59383,15.0091 -29.83929,23.08502 -47.76069,17.9179 z"
       id="Africa"
       inkscape:label="#path4038" />
    <path
       inkscape:connector-curvature="0"
       style="fill:#a94d00;fill-opacity:1"
       d="m 495.59407,679.2744 c -8.05844,-18.13169 1.90737,-39.41398 16.97625,-50.53513 15.02863,13.0391 -3.71106,34.26585 -8.56592,48.10005 -2.29659,1.92775 -5.40284,3.09501 -8.41033,2.43508 z"
       id="Madagascar"
       inkscape:label="#path3064" />
    <path
       inkscape:connector-curvature="0"
       id="Australia"
       d="m 879.04867,739.921 c -21.44165,3.49317 -16.0934,-27.23146 -38.30226,-26.75558 -22.24441,-7.33556 -42.92696,8.4948 -64.7324,8.77413 -4.2913,-11.26865 2.84971,-27.04521 -0.12857,-40.61539 -0.40032,-16.92634 16.99412,-23.10911 30.60111,-26.1496 13.95663,-8.63906 24.02232,-23.3515 41.11205,-28.02614 11.89319,-10.9118 33.37304,-10.3402 29.76236,10.27462 9.70776,17.4814 27.08467,-2.21384 23.54961,-15.44133 15.14599,-2.36535 10.75637,23.1691 16.75121,32.8946 9.45441,12.77254 20.66853,29.46823 12.08897,45.66204 -8.14746,13.8849 -22.30425,23.33585 -33.40857,34.59786 -5.18648,3.10023 -11.21104,4.97537 -17.29351,4.78479 z"
       style="fill:#bf3f7f"
       inkscape:label="#path3070" />
    <path
       inkscape:connector-curvature="0"
       id="Papua_New_Guinea"
       d="m 935.59407,614.0742 c -10.25074,-7.13689 -22.95,-16.8838 -34.63175,-7.64766 -13.05971,-4.06116 -13.8284,-24.10482 -29.92857,-23.87222 -8.95223,-4.74915 -4.89272,-15.87798 4.75272,-9.0718 14.65992,-1.22254 28.29349,2.84155 40.13587,11.28132 7.66603,8.32752 16.07764,19.16909 19.67173,29.31036 z"
       style="fill:#009389;fill-opacity:1"
       inkscape:label="#path3068" />
    <path
       inkscape:connector-curvature="0"
       style="fill:#05aff0;fill-opacity:1"
       d="m 783.09407,603.2897 c -10.96212,2.0936 -37.50778,-11.50712 -10.92727,-7.73311 3.48437,0.13139 29.08682,8.7621 10.92727,7.73311 z"
       id="Indonesia3"
       inkscape:label="#path4048" />
    <path
       inkscape:connector-curvature="0"
       style="fill:#05aff0;fill-opacity:1"
       d="m 747.52462,590.1295 c -8.56234,-11.96445 -32.8393,-36.10509 -26.41996,-44.39662 11.89078,8.23423 40.29776,28.07175 26.41996,44.39662 z"
       id="Indonesia2"
       inkscape:label="#path4046" />
    <path
       inkscape:connector-curvature="0"
       style="fill:#05aff0;fill-opacity:1"
       d="m 790.75267,580.7984 c -33.04458,3.02661 -16.80302,-41.08605 6.9284,-42.04784 18.51457,0.53317 5.70397,39.99793 -6.9284,42.04784 z"
       id="Indonesia"
       inkscape:label="#path4044" />
    <path
       inkscape:connector-curvature="0"
       style="fill:#f23d00"
       d="m 740.59407,555.3906 c -20.67759,-18.6965 -12.21532,-53.41359 -35.97615,-69.98706 -8.56827,-21.49268 -32.76342,-26.06272 -45.80845,-6.42274 -15.25365,8.11876 -10.34763,48.09524 -27.1267,41.28141 -17.95166,-15.2968 -8.9344,-47.40298 -33.07857,-56.96831 -13.39882,-18.62732 -39.73506,-10.22484 -59.51213,-17.21565 -7.98504,-2.72488 -34.62933,-25.95674 -25.32005,-2.45686 10.39633,14.79856 55.93876,3.18096 35.24213,33.43167 -14.38383,16.83508 -50.61283,43.2286 -62.30124,10.74831 -9.42194,-21.98707 -23.29573,-42.40437 -38.22123,-59.74264 12.89631,-12.32251 10.02368,-35.94936 -11.94347,-26.91855 -25.87867,-3.42545 -7.37511,-35.12538 12.3354,-22.45634 22.0015,-1.98418 46.91979,-4.66471 60.79461,16.13566 22.5197,12.5597 16.71527,-21.79386 2.38987,-27.72957 9.50622,-9.63617 -17.22243,-28.02225 0.0861,-34.47411 14.56194,11.70752 32.09605,-13.47099 9.84767,-15.58448 7.70339,-18.02181 -16.98267,-42.32726 7.85613,-53.98105 -8.15284,-27.631 20.31911,-1.97463 20.29952,4.51376 -6.96658,-23.14211 24.96708,-26.97005 42.02573,-31.39649 28.43208,-8.82472 -25.74968,-6.92881 -16.99267,-13.55016 19.65534,6.34376 48.87358,6.27366 62.76189,16.59922 10.68921,17.05011 37.99546,-3.59728 53.6662,9.83236 28.67492,9.93533 58.91565,-4.8525 87.4513,5.21711 27.91281,7.39785 56.67939,3.40513 84.93127,6.6904 8.87644,2.32284 39.63996,5.89532 35.77552,13.32277 -19.20388,-0.72851 -2.616,9.16337 -0.26023,14.25044 -13.56908,4.74918 -39.88886,8.89839 -18.72424,24.57457 10.26047,20.70579 -16.46906,22.78816 -19.50854,2.984 2.9515,-22.02471 -14.52513,-35.56239 -30.204,-17.2252 -13.9486,-3.92515 -48.84548,5.27344 -28.24742,22.21549 24.85905,3.10638 38.90629,35.49064 14.83677,50.28108 -19.33018,9.31371 5.75021,25.96072 0.41933,33.69936 -12.88829,-5.43828 -30.85126,-34.65459 -41.99574,-15.61502 -1.16791,9.79992 23.86465,4.31837 9.92529,19.24016 13.2719,14.36464 23.39624,37.8824 3.65623,51.95287 -11.67216,5.80123 -52.13562,5.81195 -33.90119,25.73202 19.5879,11.48513 2.18183,50.26641 -14.04572,25.91452 -24.34055,-15.83467 -16.20431,21.79531 -1.78792,28.37323 3.60878,4.12031 10.96487,13.80499 0.65468,14.73382 z"
       id="Asia"
       inkscape:label="#path4042" />
    <path
       style="fill:#6b00f2;fill-opacity:1"
       d="m 850.51805,411.86328 c -2.79409,1.82177 -5.74248,3.89299 -9.20982,3.95592 -2.06981,-0.54228 -1.76079,-3.16441 -0.90633,-4.61973 2.7761,-5.18339 7.37151,-9.07678 12.13561,-12.36974 2.07331,-1.19795 2.61317,-3.73702 3.91311,-5.59218 3.24895,-5.73262 6.70934,-11.39503 11.0186,-16.40316 1.83025,-1.66525 3.38881,0.88388 2.51422,2.59673 -0.55295,5.47332 -2.1747,10.76359 -3.74742,16.01094 -2.01004,5.4687 -6.8691,9.0294 -11.21044,12.58629 -1.5342,1.2402 -3.06235,2.4908 -4.50753,3.83493 z"
       id="Japan"
       inkscape:connector-curvature="0" />
    <path
       inkscape:connector-curvature="0"
       id="North_America"
       d="m -25.16144,528.4723 c -18.049195,-7.71765 -24.251016,-31.19691 -45.677559,-34.22935 -14.540987,-4.45406 -34.282161,-3.34265 -41.529581,-19.60361 -10.51287,-15.98651 -12.78367,-36.27713 -25.33614,-51.07476 -12.31156,5.62465 12.47844,32.32369 1.55332,30.61166 -8.92901,-18.01415 -12.10344,-38.37147 -21.95652,-55.97666 -3.57997,-20.85409 12.86361,-37.26167 26.31656,-50.70276 6.69317,-11.47703 -7.59759,-21.42917 -1.74233,-34.23212 -0.38389,-17.83298 -23.55948,-19.54036 -37.11481,-18.89226 -19.90199,1.58366 -37.11322,12.86132 -55.70425,18.62136 -6.63682,-0.80299 26.60969,-11.42849 7.92935,-11.61117 -5.37282,-16.2683 31.09421,-17.16175 24.59827,-23.30763 -13.98178,-6.97156 17.54336,-4.83023 19.85623,-15.82672 16.88205,-7.89261 37.381,-9.27033 55.96525,-6.5888 21.294229,6.45207 43.754241,5.02843 65.423732,1.77705 20.219658,0.95266 38.976975,16.14022 58.8613157,7.47954 13.7696573,2.28828 32.0309343,5.85713 36.2927873,-11.19438 10.546177,-3.27562 16.136466,24.12021 25.788244,6.68712 17.272312,6.28781 -13.607985,13.51175 -20.269881,14.13257 -13.006221,8.708 -34.01627,9.57614 -40.9075247,24.65371 -2.2520356,18.74057 26.5945777,9.84393 25.0328557,29.1741 8.969984,10.10625 18.477706,-16.08567 25.3622,-21.68015 5.502448,-14.13724 26.126249,-28.64861 33.232306,-7.71339 2.940984,5.0929 24.121845,-3.2941 19.946845,12.92661 -6.95605,11.09985 19.51646,11.45075 4.99737,20.52936 -13.83934,8.9853 -40.250294,0.76051 -48.487371,13.91386 7.353892,-1.90958 18.447167,-3.64147 13.126239,7.11554 7.801358,4.471 9.937485,9.32381 -0.425587,11.18171 -5.463393,3.70286 -9.229982,-3.4145 -2.008054,-4.79367 -20.539715,1.0737 -35.766047,18.74042 -52.398025,28.66701 -7.013022,15.51592 -21.8953943,23.31409 -32.3209239,34.40414 -2.6681721,8.13567 -3.8667211,34.83806 -9.3440661,14.26342 -8.332137,-19.67218 -30.180367,-5.59096 -45.302744,-5.89761 -20.02264,2.59858 -28.523632,30.62079 -16.671378,45.65914 10.319863,18.39563 31.120279,-20.22972 34.564009,-2.11637 -8.041029,9.86778 -4.074897,22.27195 8.850569,20.0872 7.102304,9.04282 -0.147555,37.18663 19.305542,28.11164 -1.136115,3.64271 -5.831412,8.56653 -9.80625,5.44467 z"
       style="fill:#009081;fill-opacity:1"
       inkscape:label="#path3133" />
    <path
       inkscape:connector-curvature="0"
       id="Greenland"
       d="m 168.59407,292.6959 c -8.60763,-2.83296 -7.91639,-12.8344 -7.87517,-19.96723 0.67244,-8.12831 13.21188,-8.82669 12.88664,-17.29785 -2.90867,-5.82208 -6.32916,-11.38552 -9.07763,-17.23975 -5.14901,-5.36549 -13.11982,-4.68247 -19.84207,-4.08898 -6.77008,1.18808 -9.85275,-7.81391 -1.63969,-6.98148 9.34249,-0.95781 18.19524,-4.16133 26.84669,-7.63616 11.83614,-4.13853 24.52625,-1.39369 36.76327,-2.07692 13.70536,-0.0868 27.07849,-4.70901 40.85926,-3.4 10.90309,-2.01424 22.59219,-1.19754 32.56172,3.84144 3.01741,1.01812 12.37524,-1.45167 11.23483,1.47909 -5.55939,2.48421 -13.61492,1.37608 -16.69351,7.70513 -1.19872,7.97178 -7.69893,14.9691 -15.46412,16.88397 -3.40201,-0.64738 -11.71101,3.20544 -4.42566,4.90776 3.77151,0.18161 6.86776,7.82758 0.86251,5.61428 -2.84497,-2.52435 -9.20317,-5.34117 -9.16707,-0.20342 -6.20674,4.62977 12.47426,1.16308 4.43202,5.57949 -8.89957,3.81553 -19.2034,1.45954 -28.02047,5.3589 -6.48093,4.29952 -13.61236,7.9908 -21.47347,8.69393 -8.63461,1.93109 -14.09921,9.32011 -18.414,16.42079 -3.41185,4.60893 -9.78164,6.50006 -14.35408,2.40701 z"
       style="fill:#000ccb;fill-opacity:1"
       inkscape:label="#path3127" />
    <path
       inkscape:connector-curvature="0"
       style="fill:#c00000"
       d="m 294.50551,401.419 c -3.82857,-3.38205 -15.04917,-10.72382 -11.81667,-20.86211 0.7545,-10.92113 9.91469,-15.37901 18.32857,-10.62663 16.64997,1.25274 15.11496,-18.78399 3.36023,-23.42272 12.0963,-0.70882 22.08275,-8.25431 31.16719,-15.67862 5.37259,-6.43692 21.50468,-6.32196 15.42889,-17.87115 1.23297,-6.68605 7.6217,-3.32555 5.23283,2.21482 10.094,-4.41806 6.52272,3.17123 -0.0319,2.98611 8.14943,6.45305 20.71936,3.47195 30.81142,1.63542 8.43159,-0.20545 8.54137,-15.90472 17.29021,-13.09897 -9.29962,-12.94274 14.66189,-1.2721 13.89249,-10.89454 -8.1645,1.0176 -30.88493,1.78652 -21.74961,-12.63761 9.54036,-5.90015 -1.56209,-14.63152 -6.17282,-5.43795 -6.38212,3.75684 -16.99087,15.14755 -5.34666,20.37626 -5.84828,4.90248 -14.58563,25.60816 -21.11824,10.74574 -2.28179,-13.83175 -24.80017,2.50079 -23.04596,-14.61794 4.44464,-13.0148 22.55942,-11.45446 28.02057,-24.75995 10.49885,-12.28952 28.54701,-16.6856 44.104,-13.71058 10.3298,4.30081 21.37247,5.57915 32.08448,8.59976 9.813,3.40049 3.17495,9.60178 -4.3071,6.35713 -5.04655,-2.47273 -20.77905,-2.78855 -10.03969,4.0391 1.8439,5.88142 18.92166,10.09461 11.6372,2.20495 8.97394,2.49266 11.32086,-4.51807 18.78331,-7.17104 -1.72802,-11.6481 9.84676,5.04331 15.36865,-3.81749 8.48428,-7.05034 25.82521,2.37315 30.58068,-5.44881 -5.09441,-2.80443 -10.34507,-3.9001 -1.38681,-2.58099 7.65255,0.005 21.93632,-0.75324 17.90658,11.54294 -13.4519,6.06995 -1.41961,20.52835 -1.84282,30.56061 1.05298,6.08356 0.0581,9.09591 0.18741,15.48276 3.36328,8.10748 4.00784,2.49486 6.59855,4.16327 6.18021,7.05378 -0.45976,18.36154 -10.04526,13.47074 -8.73182,-3.24637 -20.82201,2.16144 -9.70967,14.62234 12.17369,12.97534 -20.62701,6.70198 -12.21201,20.36442 2.97559,4.91857 17.03566,21.5428 2.32147,14.25784 -10.15192,-6.69245 -17.82141,-1.92081 -27.56889,-9.53686 -9.42671,-2.08915 -9.9893,-15.78944 -10.76006,-21.81315 -4.23588,0.40033 -16.44843,4.8933 -8.94766,9.54617 -9.60833,8.68511 -11.88775,-14.65304 -21.24942,-2.39145 -8.05629,5.70273 -3.70452,17.94379 -8.62576,22.31438 -7.80092,0.21209 -21.31228,-0.43055 -15.5392,11.16752 2.95838,11.85611 -10.05414,2.49253 -4.06445,-1.94612 -12.97354,-1.52196 -9.39114,-21.7157 -23.4971,-22.11352 -2.97317,-5.10987 -19.815,-12.25107 -12.47232,-1.16773 3.8467,6.09131 23.29595,16.80276 15.2586,18.57407 -4.34113,0.95673 -3.20912,16.70948 -8.09447,3.11155 3.16676,-10.02628 -12.78924,-9.35786 -16.56464,-20.47151 -7.48255,-7.45752 -15.84451,4.03167 -24.93565,2.10532 -2.53489,2.99654 -1.67707,2.16878 -7.03665,5.45738 -5.24594,3.21886 -9.51245,13.03127 -12.33443,19.16926 -5.1306,4.98282 -12.25325,2.85774 -17.84739,7.00758 z"
       id="Europe"
       inkscape:label="#path4056" />
    <path
       inkscape:connector-curvature="0"
       style="fill:#32c000;fill-opacity:1"
       d="m 302.59407,337.4874 c 5.8697,0.50391 8.32009,-6.80653 1.06088,-6.6294 6.05017,-4.81767 9.62681,-12.02291 0.73175,-15 -5.22647,-9.3891 11.77679,-13.27569 6.05945,-3.04558 3.9349,6.46894 14.2718,12.88069 12.85984,18.82655 -4.3473,6.59264 -13.78805,4.76984 -20.71192,5.84843 z"
       id="UK"
       inkscape:label="#path4054" />
    <path
       inkscape:connector-curvature="0"
       style="fill:#32c000;fill-opacity:1"
       d="m 285.73019,331.9634 c -4.78749,-11.1273 18.22002,-21.81002 13.18287,-6.36681 -2.45001,4.24146 -8.07205,8.84987 -13.18287,6.36681 z"
       id="Ireland"
       inkscape:label="#path4052" />
    <path
       inkscape:connector-curvature="0"
       style="fill:#00c099;fill-opacity:1"
       d="m 258.59407,283.4693 c -13.44951,-4.17837 8.72612,-9.55995 13.85611,-8.60073 10.83176,-0.7422 3.65627,9.71434 -3.40886,8.42911 -3.26377,1.22864 -7.38157,2.7626 -10.44725,0.17162 z"
       id="Iceland"
       inkscape:label="#path3056" />
    <path
       sodipodi:nodetypes="cccccccccccccccccccccccc"
       inkscape:connector-curvature="0"
       id="South_America"
       d="M 66.79277,802.3206 C 49.450112,796.69875 44.818764,777.75082 43.124551,762.0572 37.749106,749.3776 29.563439,736.4893 32.618143,722.12765 31.565976,702.87017 27.331728,683.67248 29.540496,664.33835 29.832358,647.75782 14.230295,639.82305 3.0776695,631.09056 -6.3858849,621.01908 -9.3431723,606.71874 -18.460304,596.39437 c -6.971197,-15.30088 -3.128424,-34.33018 9.5419017,-45.38195 5.2371675,-9.66747 -8.8095427,-27.95123 8.0088041,-28.00393 5.1019245,-5.36095 18.8280522,-19.98923 17.3648172,-3.47689 3.838141,4.00468 6.588269,-8.94126 13.869682,-5.2319 14.013951,2.41492 27.835074,8.16193 38.408495,17.51317 10.82419,7.18996 26.491893,7.46832 33.982814,19.06399 3.46246,4.81806 -4.478271,19.02541 -3.030926,17.83249 8.629436,-6.78403 9.815866,7.52969 16.731066,0.9898 11.05763,1.98091 18.83422,10.05475 30.97547,9.5318 16.66759,2.84269 29.35292,21.82767 13.7587,34.92738 -12.36768,11.09553 -5.02873,27.66562 -10.614,41.19331 -3.82772,17.24087 -28.50349,11.64404 -31.53768,29.09011 -3.36799,13.61216 -5.41032,31.75378 -21.358742,36.29621 -6.520732,1.83371 -10.887054,0.79938 -4.224534,6.91839 1.462176,12.25872 -15.096787,14.94508 -20.781797,22.76027 -6.239178,3.87037 2.895576,9.94476 -1.395358,16.478 -2.541172,11.25221 9.581309,30.35617 -4.445639,35.42598 z"
       style="fill:#007f00"
       inkscape:label="#path3054" />
    <path
       inkscape:connector-curvature="0"
       id="New_Zealand_south"
       d="m 961.54186,764.5986 c -3.70735,-3.15466 -1.20004,-8.5946 1.48534,-11.54963 3.23039,-3.22558 7.70665,-4.82477 10.90557,-8.12164 4.04811,-3.74173 9.3933,-7.82315 15.24915,-6.09404 4.23489,0.76332 3.72444,6.42649 -0.1773,7.3343 -3.42431,1.23602 -6.0238,3.70939 -8.71209,6.0429 -2.87016,1.35673 -6.2035,2.08447 -8.45018,4.55694 -3.30772,2.3 -4.60724,7.02002 -8.31551,8.55265 -0.72717,0.071 -1.46619,-0.21255 -1.98498,-0.72148 z"
       style="fill:#0080aa;fill-opacity:1"
       inkscape:label="#path3098" />
    <path
       inkscape:connector-curvature="0"
       id="New_Zealand_north"
       d="m 1004.6533,731.0404 c 2.4652,-1.38963 4.2935,-4.32278 3.5779,-7.2004 -0.5438,-3.84546 -2.5945,-7.50524 -2.0361,-11.47466 0.3385,-1.47934 2.3775,-1.41423 3.3137,-0.5543 1.3671,0.90382 2.5042,2.2729 2.7353,3.93639 0.7649,2.54574 1.2723,5.51394 3.5768,7.17451 2.621,1.30908 5.6891,-0.17065 8.3336,1.04332 0.9378,1.30153 -0.274,2.75575 -1.0473,3.79739 -1.7765,2.1514 -4.2865,3.50831 -6.6527,4.90775 -3.136,1.76295 -6.3502,3.44879 -9.1315,5.75631 -1.3014,0.95493 -2.7226,-0.1179 -3.1602,-1.41971 -1.0143,-1.8222 -1.385,-4.54228 0.4905,-5.9666 z"
       style="fill:#0080aa;fill-opacity:1"
       inkscape:label="#path3094" />
  </g>
</svg>
